<svg width="78" height="66" viewBox="0 0 78 66" fill="none" xmlns="http://www.w3.org/2000/svg">
<path fill-rule="evenodd" clip-rule="evenodd" d="M0 33.131L16.5298 46.6191L78 28.2857L0 33.131Z" fill="#8193CF"/>
<path fill-rule="evenodd" clip-rule="evenodd" d="M14.7217 65.7381L16.5296 46.6191L77.9998 28.2857L25.4402 52.7738L14.7217 65.7381Z" fill="#4661B9"/>
<path fill-rule="evenodd" clip-rule="evenodd" d="M25.3116 29.7262L58.7586 15.5833C60.954 14.6667 62.7619 15.9762 62.7619 18.7262V34.9643C62.7619 37.5833 60.954 40.5952 58.7586 41.5119L25.3116 55.6548C23.1162 56.5714 21.3083 55.131 21.3083 52.5119V36.2738C21.1791 33.5238 22.9871 30.6429 25.3116 29.7262Z" fill="#F2C94C"/>
<path fill-rule="evenodd" clip-rule="evenodd" d="M25.9567 29.4643L57.8541 15.9762C59.2746 15.3214 60.6951 15.4524 61.47 16.2381L41.97 36.5357L22.3408 32.7381C23.1157 31.2976 24.5362 29.9881 25.9567 29.4643Z" fill="#C89A0F"/>
<path fill-rule="evenodd" clip-rule="evenodd" d="M25.3115 14.1429V33.3929L41.9705 36.5357L58.6294 19.119V0L25.3115 14.1429Z" fill="white"/>
<path fill-rule="evenodd" clip-rule="evenodd" d="M30.3476 17.1547L53.5926 7.33332C53.8509 7.20236 54.1092 7.33332 54.1092 7.72617C54.1092 7.98808 53.8509 8.38094 53.5926 8.51189L30.3476 18.3333C30.0893 18.4643 29.8311 18.3333 29.8311 17.9405C29.8311 17.6786 30.0893 17.2857 30.3476 17.1547Z" fill="#02A9F7"/>
<path fill-rule="evenodd" clip-rule="evenodd" d="M30.3476 20.4286L53.5926 10.6071C53.8509 10.4762 54.1092 10.6071 54.1092 11C54.1092 11.2619 53.8509 11.6548 53.5926 11.7857L30.3476 21.6071C30.0893 21.7381 29.8311 21.4762 29.8311 21.2143C29.8311 20.8214 30.0893 20.4286 30.3476 20.4286Z" fill="#02A9F7"/>
<path fill-rule="evenodd" clip-rule="evenodd" d="M30.3476 23.5714L53.5926 13.75C53.8509 13.619 54.1092 13.8809 54.1092 14.1428C54.1092 14.4047 53.8509 14.7976 53.5926 14.9286L30.3476 24.75C30.0893 24.8809 29.8311 24.75 29.8311 24.3571C29.8311 24.0952 30.0893 23.7024 30.3476 23.5714Z" fill="#02A9F7"/>
<path fill-rule="evenodd" clip-rule="evenodd" d="M30.3476 26.5833L53.5926 16.7619C53.8509 16.631 54.1092 16.7619 54.1092 17.1548C54.1092 17.4167 53.8509 17.8095 53.5926 17.9405L30.3476 27.7619C30.0893 27.8929 29.8311 27.631 29.8311 27.3691C29.8311 27.1072 30.0893 26.7143 30.3476 26.5833Z" fill="#02A9F7"/>
<path fill-rule="evenodd" clip-rule="evenodd" d="M30.3476 29.5952L53.5926 19.7738C53.8509 19.6429 54.1092 19.7738 54.1092 20.1667C54.1092 20.4286 53.8509 20.8214 53.5926 20.9524L30.3476 30.7738C30.0893 30.9048 29.8311 30.7738 29.8311 30.381C29.8311 29.9881 30.0893 29.7262 30.3476 29.5952Z" fill="#02A9F7"/>
<path fill-rule="evenodd" clip-rule="evenodd" d="M14.7217 65.7381L31.1223 56.9643L25.4402 52.7738L14.7217 65.7381Z" fill="#314482"/>
<path fill-rule="evenodd" clip-rule="evenodd" d="M25.4404 52.7738L31.1225 56.9643L43.2616 66L78 28.2857L25.4404 52.7738Z" fill="#8193CF"/>
</svg>
