<svg width="147" height="26" viewBox="0 0 147 26" fill="none" xmlns="http://www.w3.org/2000/svg">
<g clip-path="url(#clip0_18_1162)">
<path d="M14.787 1.20872C16.9201 1.05232 18.768 1.55278 20.0562 3.37737C20.1513 3.75272 20.3625 4.08636 20.4681 4.47213C20.6898 5.24368 20.6371 6.01522 20.5948 6.79718C20.4786 7.23509 20.3731 7.67299 20.2358 8.11089C19.9507 9.00755 19.486 9.83125 19.032 10.6549C18.8419 10.7383 18.6623 10.853 18.4301 10.8321C18.4301 10.6966 18.504 10.6028 18.5568 10.5089C19.1693 9.49758 19.655 8.44453 19.8768 7.28722C20.0457 6.36971 20.0562 5.46262 19.7078 4.5764C19.5283 3.95082 19.1798 3.43993 18.6835 3.02288C18.3772 2.67882 17.9866 2.4703 17.5747 2.27219C17.2157 2.09494 17.1946 2.1158 17.0468 2.49115C16.9517 2.74138 16.9623 3.02288 16.7616 3.23141C16.3287 3.10629 15.9169 2.9082 15.4628 2.88735C15.4417 2.86649 15.4206 2.84564 15.3889 2.82479C15.3678 2.61626 15.4312 2.42859 15.5051 2.24091C15.6212 1.94898 15.5473 1.75088 15.2094 1.68832C14.9771 1.61534 14.7976 1.49023 14.787 1.20872Z" fill="#FDF48B"/>
<path d="M1.77763 19.0168C0.0353081 17.6405 -0.239241 15.8159 0.162023 13.7827C0.23594 13.397 0.320417 13.0216 0.48937 12.6671C0.679442 12.6671 0.753359 12.9174 0.953988 12.8653C0.690001 13.8662 0.499929 14.8671 0.679442 15.9097C0.901194 17.1921 1.57701 18.1305 2.75968 18.7248C2.93919 18.8187 3.02367 18.7769 3.07646 18.5893C3.1715 18.2557 3.30877 17.9324 3.36158 17.5883C3.47773 17.6301 3.58332 17.6822 3.69948 17.7239C4.02682 17.8907 4.38585 17.9428 4.72375 18.068C4.64984 18.6518 4.37529 19.2149 4.44921 19.83C3.87899 19.8091 3.34046 19.6736 2.80191 19.4964C2.47457 19.3817 2.18946 19.1523 1.84099 19.0898C1.83044 19.0688 1.80932 19.048 1.77763 19.0168Z" fill="#E9C02A"/>
<path d="M14.7871 1.20837C14.7976 1.48988 14.9771 1.62542 15.2305 1.66713C15.5685 1.72969 15.6424 1.92778 15.5262 2.21972C15.4523 2.40739 15.3889 2.59507 15.41 2.80359C15.0194 2.80359 14.6392 2.80359 14.2485 2.80359C14.2168 2.56378 14.3119 2.34484 14.3647 2.12588C14.3963 1.97992 14.4597 1.80267 14.1429 1.84437C13.7944 1.89651 13.4354 1.94864 13.0869 2.00077C13.0447 2.02162 12.9919 2.04247 12.9496 2.07375C12.6645 2.09461 12.4006 2.20929 12.126 2.27185C12.0521 2.13631 11.9888 2.00077 11.9149 1.86523C12.6857 1.54201 13.4987 1.38562 14.3224 1.27093C14.4808 1.22923 14.6392 1.2188 14.7871 1.20837Z" fill="#FDE686"/>
<path d="M0.96456 12.8651C0.753368 12.9173 0.679451 12.6671 0.499939 12.6671C0.837845 11.4994 1.42918 10.4567 2.10499 9.44536C2.30563 9.13258 2.54849 8.84064 2.77025 8.54871C2.91808 8.54871 2.97088 8.7051 3.09759 8.74681C3.02368 8.87192 2.98144 9.00746 2.8864 9.13258C2.06275 10.2795 1.37638 11.5098 0.96456 12.8651Z" fill="#EDC83D"/>
<path d="M6.37106 20.6224C5.74805 20.6849 5.13559 20.5702 4.51258 20.4868C4.143 20.3825 3.78397 20.2783 3.41438 20.174V20.1636C3.40383 20.1219 3.37214 20.101 3.32991 20.101C2.80193 19.8091 2.25283 19.538 1.841 19.0793C2.18947 19.1418 2.46402 19.3712 2.79136 19.4859C3.32991 19.6632 3.86845 19.7987 4.43866 19.8195C4.8716 19.8195 5.30455 19.8195 5.73748 19.8195C5.87476 20.1636 6.15987 20.3617 6.37106 20.6224Z" fill="#D5B041"/>
<path d="M21.3445 7.52702C21.0066 7.37062 20.7849 7.09954 20.6053 6.78675C20.6476 6.00479 20.7004 5.23324 20.4787 4.4617C20.373 4.08635 20.1513 3.75271 20.0668 3.36694C20.8588 4.27402 21.2495 5.33751 21.3551 6.51567C21.3867 6.84931 21.3551 7.19338 21.3445 7.52702Z" fill="#D5B041"/>
<path d="M3.08699 8.74676C2.96028 8.70505 2.90748 8.54865 2.75964 8.54865C3.46714 7.56859 4.30135 6.70321 5.19891 5.88996C5.32562 5.77528 5.42066 5.59803 5.61073 5.5459C5.66353 5.66058 5.69521 5.7857 5.83248 5.84825C4.90324 6.79705 3.93176 7.71455 3.08699 8.74676Z" fill="#F0CC4B"/>
<path d="M5.83253 5.84836C5.69526 5.79622 5.67414 5.66069 5.61078 5.54599C6.54002 4.68062 7.57486 3.95078 8.69417 3.33563C8.78917 3.42947 8.88427 3.5233 8.97927 3.61715C8.88427 3.76311 8.71526 3.82567 8.57798 3.90908C8.08171 4.21144 7.5643 4.49295 7.13136 4.88915C7.02576 4.96213 6.93072 5.02468 6.82512 5.09767C6.47666 5.32705 6.19155 5.63984 5.83253 5.84836Z" fill="#F6D867"/>
<path d="M8.97926 3.61707C8.88417 3.52323 8.78916 3.4294 8.69415 3.33556C9.69729 2.69955 10.7638 2.18867 11.9148 1.8446C11.9887 1.98015 12.052 2.11568 12.1259 2.25123C11.8408 2.3972 11.503 2.41805 11.239 2.59529C10.7849 2.69955 10.3942 2.94978 9.97185 3.12703C9.71838 3.2313 9.44383 3.32513 9.25381 3.53365C9.15872 3.56494 9.06372 3.58579 8.97926 3.61707Z" fill="#FADE75"/>
<path d="M3.34045 20.1115C3.38282 20.1115 3.4146 20.1218 3.42518 20.1738C3.39341 20.153 3.36164 20.1322 3.34045 20.1115Z" fill="#B4B4B3"/>
<path d="M1.77765 19.0166C1.79883 19.0374 1.83061 19.0686 1.85179 19.0894C1.83061 19.0686 1.80943 19.0478 1.77765 19.0166Z" fill="#D5B041"/>
<path d="M19.7923 10.5088C19.7923 10.6444 19.7923 10.7799 19.7923 10.9155C18.5991 11.2805 17.881 13.1469 16.7723 13.7517C16.73 13.6161 15.6651 12.1127 15.6229 11.9771C15.7812 11.779 16.4327 11.4794 16.6546 11.3856C16.9185 11.2605 17.2753 11.2984 17.3915 11.0898C17.592 10.7145 17.9388 10.2698 17.981 9.75891C17.7382 9.93611 17.6381 10.2378 17.5008 10.4046C17.4375 10.4776 17.4058 10.6027 17.2791 10.5714C17.1629 10.5402 17.2052 10.4254 17.2052 10.342C17.184 9.49753 17.1524 8.66343 17.1418 7.8189C17.1313 7.28717 17.184 6.75543 17.1207 6.23411C17.0256 5.35831 17.0995 4.48251 17.0785 3.6067C17.0785 3.565 17.0756 3.44176 17.0967 3.40005C17.4452 3.58773 17.7331 3.98205 18.0288 4.23228C18.5673 4.9934 18.8419 5.8275 18.7891 6.76586C18.9475 6.73457 18.9581 6.63031 18.9897 6.55733C19.1693 5.98388 19.3593 5.41045 19.5388 4.837C19.5705 4.72231 19.5917 4.58677 19.75 4.56592C20.0985 5.45215 20.0879 6.35923 19.9189 7.27674C19.6972 8.43405 19.2115 9.49753 18.5991 10.4984C18.5462 10.5923 18.4723 10.6861 18.4723 10.8217C18.6941 10.8529 18.8842 10.7279 19.0742 10.6444C19.3065 10.6861 19.5283 10.5088 19.7923 10.5088Z" fill="#EDC83D"/>
<path d="M14.2486 2.79346C14.6393 2.79346 15.0194 2.79346 15.4101 2.79346C15.4312 2.81431 15.4523 2.83516 15.4841 2.85601C15.5052 3.565 15.4946 4.26356 15.5368 4.97254C15.6002 6.14028 15.5368 7.30802 15.6213 8.47576C15.6741 9.25773 15.5791 10.0397 15.6846 10.8321C15.7269 11.2074 16.9498 13.6617 16.802 14.0474C16.538 13.8702 15.6344 15.0949 15.3281 15.2305C15.1486 15.3034 14.4281 12.052 14.2486 12.1249C14.3014 11.3846 14.1746 10.6549 14.1852 9.91456C14.1852 9.6435 14.0585 9.59137 13.8156 9.66438C13.71 9.69562 13.6044 9.79993 13.4777 9.71645C13.4566 9.65389 13.4461 9.62344 13.4777 9.59216C13.5411 9.5296 13.7206 9.49753 13.6573 9.39327C13.6044 9.30986 13.4882 9.34114 13.4038 9.36199C13.2242 9.38284 13.0448 9.42455 12.8759 9.46625C12.5485 9.52881 12.3864 9.43497 12.3019 9.09091C12.3758 9.07006 12.4746 9.01371 12.5485 8.99286C12.5274 9.18053 12.6431 9.1778 12.8226 9.16737C12.9705 9.16737 12.9695 9.20908 13.1173 9.16737C13.5378 8.95469 14.0579 9.00396 14.4492 9.36199C14.6287 9.51838 14.861 9.35156 15.0617 9.30986C15.1567 9.28901 15.1356 9.17432 15.0405 9.14304C14.5759 8.98665 14.1641 8.66343 13.6361 8.68428C13.6361 8.40278 13.6573 8.12127 13.5727 7.85018C13.5516 7.78763 13.5727 7.70422 13.4777 7.68336C13.4038 7.66251 13.3404 7.71465 13.2982 7.76678C13.1292 7.96488 12.9603 8.16297 12.8019 8.36107C12.3689 8.92409 11.7143 9.2473 11.2285 9.74778C11.218 9.75819 11.1863 9.75819 11.1651 9.75819C11.1546 9.58094 11.3869 9.52881 11.3763 9.35156C11.5242 9.35156 11.5981 9.23688 11.672 9.15347C12.2316 8.5696 12.7913 7.98573 13.3299 7.38101C13.7523 6.89097 14.4069 6.63031 14.7238 6.04644C14.8188 5.98388 14.9244 5.89005 14.7766 5.8275C14.5759 5.74409 14.3647 5.56684 14.1113 5.7128C14.0374 5.66068 14.0374 5.57727 14.0374 5.50428C13.974 4.60762 13.9529 3.71097 13.974 2.81431C14.0585 2.80389 14.1535 2.79346 14.2486 2.79346Z" fill="#F3D259"/>
<path d="M15.6107 11.9998C15.7585 11.614 15.7163 11.2179 15.674 10.8321C15.579 10.0501 15.6635 9.25771 15.6107 8.47573C15.5368 7.308 15.6001 6.14026 15.5262 4.97252C15.4839 4.26353 15.5051 3.56497 15.4734 2.85599C15.9275 2.87684 16.3392 3.07494 16.7723 3.20006C16.8356 3.34603 17.149 3.28535 17.2441 3.40003C17.2229 3.44174 17.0967 3.54791 17.0967 3.54791C17.1178 4.42372 17.0967 5.02672 17.0967 6.06188C17.1601 6.58319 17.2335 7.15683 17.2441 7.68857C17.2652 8.5331 17.223 9.50585 17.2441 10.3504C17.2441 10.4338 17.1524 10.5088 17.258 10.5401C17.3847 10.5818 17.4164 10.4568 17.4797 10.3733C17.617 10.2065 17.7381 9.94659 17.981 9.75889C17.9388 10.2697 17.7226 10.7278 17.5219 11.1032C17.4058 11.3117 17.0256 11.3742 16.7511 11.489C16.5399 11.5828 16.2971 11.6349 16.1387 11.8329C15.9275 11.8329 15.8113 12.0624 15.5896 12.0415C15.6107 12.0415 15.6107 12.0206 15.6107 11.9998Z" fill="#F0CC4B"/>
<path d="M19.7184 4.60137C19.6022 4.77693 19.6444 4.94758 19.6022 5.07269C19.4227 5.64613 19.2028 6.07998 19.0127 6.65342C18.9916 6.73683 18.9263 6.77003 18.7574 6.8013C18.8102 5.86294 18.3722 4.9361 17.8336 4.18541C18.1398 4.11242 18.1808 3.89391 18.2758 3.69581C18.3814 3.46644 18.1275 2.93365 18.4232 2.80853C19.1601 3.25217 19.5494 3.9758 19.7184 4.60137Z" fill="#F3D259"/>
<path d="M18.694 3.00199C18.3984 3.13753 18.4617 3.45032 18.3561 3.66927C18.2611 3.86737 18.3139 4.14887 18.0076 4.21143C17.712 3.9612 17.4692 3.64842 17.1207 3.47117C17.0362 3.34606 16.8461 3.35648 16.7722 3.21051C16.9729 3.00199 16.9269 2.72048 17.0219 2.47026C17.1698 2.09491 17.2262 2.08448 17.5853 2.2513C17.9865 2.4494 18.3878 2.65793 18.694 3.00199Z" fill="#F9DD6F"/>
<path d="M19.1327 10.4707C19.1027 10.5251 19.0726 10.5796 19.0425 10.634C19.1991 10.6649 19.3408 10.6152 19.4831 10.5652C19.5807 10.5309 19.6786 10.4966 19.7817 10.4881C19.8997 10.4321 20.0263 10.4116 20.1527 10.3911C20.3091 10.3658 20.4653 10.3405 20.6053 10.2482C20.8694 9.78953 21.0172 9.2786 21.1439 8.76771C21.1651 8.68593 21.1889 8.60414 21.2128 8.5221C21.3076 8.19626 21.4036 7.86639 21.3446 7.51656C21.0066 7.36018 20.7849 7.08909 20.6053 6.77631C20.5762 6.88623 20.5477 6.99615 20.5192 7.10607C20.4342 7.43405 20.3491 7.76203 20.2463 8.09001C19.9801 8.93709 19.5573 9.70235 19.1327 10.4707Z" fill="#DBBF60"/>
<path d="M10.3652 18.7209C10.3337 18.6189 10.3021 18.5165 10.2781 18.4119L10.2321 18.4342C9.31844 18.875 8.41327 19.3119 7.40591 19.5067H7.34256C7.29557 19.5716 7.22349 19.5705 7.1561 19.5695C7.14776 19.5694 7.1395 19.5693 7.13136 19.5693C6.92461 19.611 6.71996 19.6507 6.51646 19.6902C6.26265 19.7394 6.00006 19.7627 5.74805 19.8148C5.74805 20.1105 5.99969 20.2366 6.1611 20.403C6.23337 20.4775 6.30576 20.5521 6.37108 20.6327C6.55125 20.6614 6.72822 20.6364 6.90375 20.6116C7.04714 20.5914 7.18957 20.5712 7.332 20.5806C8.01579 20.4918 8.66892 20.3121 9.32404 20.1319C9.4378 20.1006 9.55162 20.0693 9.66567 20.0385C9.83464 19.9707 10.0063 19.9003 10.1779 19.8299C10.3495 19.7596 10.521 19.6892 10.69 19.6214L10.6896 19.6209C10.668 19.5927 10.6368 19.5705 10.6054 19.5481C10.5442 19.5046 10.4824 19.4605 10.4893 19.3712C10.4965 19.1454 10.4311 18.9341 10.3652 18.7209Z" fill="#DBBF60"/>
<path d="M19.4831 10.5652C19.3408 10.6152 19.1991 10.6649 19.0425 10.634C14.4438 16.8539 10.2781 18.4119 10.2781 18.4119C10.3021 18.5165 10.3337 18.6189 10.3652 18.7209C10.4311 18.9341 10.4965 19.1454 10.4893 19.3712C10.4824 19.4605 10.5442 19.5046 10.6054 19.5481C10.6368 19.5705 10.668 19.5927 10.6896 19.6209C11.3487 19.3711 12.5278 18.7796 12.7033 18.6497C12.736 18.6615 12.7624 18.6808 12.7813 18.7086C14.876 17.579 18.1036 15.1768 20.6053 10.2482C20.4653 10.3405 20.3091 10.3658 20.1527 10.3911C20.0263 10.4116 19.8997 10.4321 19.7817 10.4881C19.6786 10.4966 19.5807 10.5309 19.4831 10.5652Z" fill="#DBBF60"/>
<path d="M4.7343 18.0679C4.3964 17.9531 4.03737 17.8906 3.71003 17.7238C3.64667 15.0442 3.62556 12.3647 3.49884 9.68513C3.64667 9.38279 3.85787 9.11171 4.06906 8.85106C4.45976 8.36102 4.82934 7.85014 5.32564 7.44351C5.43124 7.50607 5.41012 7.61033 5.41012 7.71459C5.42068 8.93447 5.52628 10.1439 5.47347 11.3637C5.46292 11.5514 5.49459 11.7391 5.5474 11.9268C5.39956 12.2604 5.07221 12.4377 4.86102 12.7088C4.70263 12.9069 4.67095 13.0529 4.9983 13.0633C5.16725 13.1988 5.27285 13.303 5.35732 12.959C5.4418 12.6254 5.67411 12.3439 6.02257 12.1874C6.03313 12.3439 5.86418 12.4064 5.82194 12.5315C5.68467 12.6775 5.43124 12.813 5.51571 13.0215C5.60019 13.2196 5.85362 13.2822 6.09649 13.2718C6.05425 13.4386 5.9909 13.5533 5.76914 13.4907C5.31508 13.3656 5.23061 13.4595 5.32564 13.9286C5.3362 13.9912 5.34676 14.0642 5.34676 14.1267C5.30452 15.4613 5.39956 16.7959 5.42068 18.1304C5.18837 18.1096 4.95606 18.0887 4.7343 18.0679Z" fill="#F6D867"/>
<path d="M5.32563 7.45392C4.82933 7.85011 4.45975 8.361 4.06904 8.86146C3.85785 9.12212 3.64666 9.38277 3.49883 9.69553C3.35099 9.77901 3.30876 9.94579 3.22428 10.0813C2.40063 11.4472 1.77762 12.8756 1.77762 14.5125C1.77762 15.8262 2.26336 16.8688 3.37211 17.6091C3.32987 17.9531 3.1926 18.2764 3.08701 18.61C3.03421 18.7872 2.94973 18.8394 2.77022 18.7456C1.58755 18.1616 0.911732 17.2129 0.689985 15.9304C0.437541 14.9084 0.542569 13.9187 0.929162 12.886C1.26294 11.5066 1.90215 10.2617 2.851 9.1534C2.93548 9.02828 2.98828 8.89274 3.06219 8.76762C3.81049 7.7001 4.74313 6.77253 5.80768 5.86913C6.11562 5.57427 6.43502 5.21349 6.82509 5.08295C6.93069 5.00996 7.10984 4.84335 7.1667 4.87442C7.33565 4.9057 7.26859 5.03503 7.22636 5.14971C7.15244 5.37909 7.03628 5.59805 7.06797 5.84828C6.92013 5.97339 6.7723 6.08808 6.63502 6.2132C6.19152 6.61982 5.6741 6.94304 5.32563 7.45392Z" fill="#E6B40F"/>
<path d="M3.37215 17.5987C2.26339 16.8585 1.77765 15.8159 1.77765 14.5022C1.77765 12.8652 2.40067 11.4369 3.22431 10.071C3.30879 9.93544 3.34046 9.77907 3.49886 9.68518C3.62558 12.3648 3.6467 15.0443 3.71005 17.7238C3.59389 17.6821 3.47774 17.6404 3.37215 17.5987Z" fill="#F3D259"/>
<path d="M4.73432 18.0679C4.96663 18.0888 5.18837 18.1096 5.42068 18.1305C5.62132 18.1305 5.83251 18.1305 6.03315 18.1409C5.95923 18.4016 5.88531 18.6518 5.81139 18.9124C5.73747 19.2044 5.80083 19.2565 6.10706 19.2148C6.54001 19.1418 6.97294 19.0896 7.40589 19.0272C7.5326 19.1835 7.62764 19.3399 7.40589 19.5067C7.38477 19.5067 7.36365 19.5067 7.34253 19.5067C7.26861 19.5067 7.18413 19.4963 7.13134 19.5693C6.67728 19.6631 6.22322 19.7465 5.75859 19.8403C5.32565 19.8403 4.89271 19.8403 4.45977 19.8403C4.32522 19.3067 4.57146 18.7971 4.73432 18.0679Z" fill="#EDC83D"/>
<path d="M13.9739 2.80382C13.9527 3.70047 13.9845 4.59713 14.0373 5.49379C14.0373 5.5772 14.0373 5.65018 14.1112 5.70231C13.6571 6.32789 13.1502 6.91175 12.6117 7.46435C12.4744 7.45392 12.4638 7.34966 12.4638 7.24539C12.4638 7.07857 12.4638 6.91175 12.4638 6.73451C12.4638 6.61982 12.5061 6.453 12.3583 6.41129C12.221 6.38002 12.1471 6.52599 12.0732 6.61982C11.9886 6.73451 11.9147 6.87005 11.6824 6.91175C11.8725 6.64067 12.0204 6.44258 12.1471 6.23405C12.1998 6.15064 12.2949 6.0151 12.1998 5.93169C12.1048 5.83786 11.9993 5.94212 11.9042 6.0151C11.3445 6.43215 10.9116 6.97431 10.3942 7.43307C10.2991 7.52691 10.2252 7.65202 10.0668 7.65202C10.0668 7.50605 10.183 7.4435 10.2675 7.36009C10.6476 6.98474 11.0383 6.6094 11.4079 6.22362C11.4713 6.16107 11.6403 6.10894 11.503 5.96297C11.5452 5.87956 11.598 5.79615 11.6403 5.70231C11.7881 5.82743 11.862 5.69189 11.9465 5.6189C12.2316 5.39995 12.485 5.11844 12.8862 5.44166C13.0235 5.55634 13.0763 5.42081 13.0763 5.28526C13.1819 5.28526 13.2981 5.27483 13.3192 5.16015C13.3403 5.03503 13.1925 5.06631 13.1186 5.03503C12.9919 4.97247 12.8546 4.93077 12.7279 4.87863C12.6962 4.24264 12.8018 3.60663 12.6645 2.98106C12.749 2.66827 12.9496 2.37634 12.939 2.03228C12.9813 2.01142 13.0341 1.99057 13.0763 1.95929C13.0974 2.17824 13.0552 2.37634 12.9707 2.57444C12.8968 2.76211 12.9707 2.82467 13.1713 2.84552C13.4459 2.89765 13.6994 2.78297 13.9739 2.80382Z" fill="#F6D867"/>
<path d="M12.9391 2.05316C12.9497 2.39723 12.749 2.67874 12.6646 3.00195C12.2902 3.1279 11.9228 3.223 11.5664 3.34601C11.3868 3.40857 11.1968 3.48156 11.0172 3.54412C10.9961 3.21048 11.2495 2.9394 11.2284 2.60576C11.474 2.38985 11.7964 2.36229 12.1155 2.26169C12.4006 2.19913 12.654 2.07401 12.9391 2.05316Z" fill="#F3D259"/>
<path d="M14.0093 2.80393C13.7347 2.78307 13.446 2.89777 13.1714 2.87691C12.9708 2.86648 12.8615 2.7935 12.9354 2.60583C12.9699 2.36488 13.0566 2.20622 13.0763 1.99068C13.4354 1.94898 13.7838 1.88642 14.1323 1.83429C14.4491 1.79258 14.4317 1.96983 14.3894 2.11579C14.3367 2.34517 14.2416 2.5537 14.2733 2.7935C14.1889 2.7935 14.0938 2.80393 14.0093 2.80393Z" fill="#F9DD6F"/>
<path d="M7.0574 5.82748C7.03628 5.57725 7.15244 5.35829 7.2158 5.12892C7.24747 5.01423 7.28971 4.90997 7.12076 4.88912C7.5537 4.49292 8.07112 4.21141 8.56742 3.90904C8.70468 3.82563 8.87369 3.76308 8.96869 3.61711C9.05315 3.59626 9.14816 3.56498 9.2327 3.54413C9.3488 3.65881 9.30662 3.78393 9.26434 3.90904C9.20098 4.07587 9.14816 4.24269 9.16934 4.41993C8.87369 4.6076 8.55687 4.764 8.28232 4.97253C7.99721 5.19147 7.64874 5.31659 7.43755 5.62938C7.26859 5.60852 7.19468 5.78577 7.0574 5.82748Z" fill="#E9C02A"/>
<path d="M9.14455 4.44499C9.12337 4.26775 9.14082 4.13642 9.20418 3.9696C9.24646 3.84449 9.33456 3.68388 9.20783 3.56919C9.40848 3.36066 9.7184 3.23134 9.96132 3.12708C10.3837 2.94983 10.7744 2.6996 11.2285 2.59534C11.2496 2.92898 11.0421 3.23555 11.0526 3.56919C10.7042 3.71516 10.2992 3.81942 9.99296 4.03837C9.69731 4.12178 9.41902 4.33031 9.14455 4.44499Z" fill="#EDC83D"/>
<path d="M13.3087 16.5673C12.9497 16.9114 12.233 17.3008 11.8092 17.632C11.6825 16.7458 12.1471 12.0519 12.126 11.1657C12.126 10.978 12.1155 10.7799 12.0943 10.5922C12.0627 10.2899 11.9254 10.1335 11.598 10.2795C11.5346 10.3107 11.4396 10.3316 11.3974 10.1961C11.5346 10.1231 11.6719 10.0501 11.8092 9.97713C11.9465 9.90415 12.0416 9.79984 11.957 9.65388C11.8409 9.46621 11.7247 9.6226 11.6192 9.67471C11.3657 9.79984 11.144 10.0188 10.8271 9.9458C10.8694 9.85199 11.049 9.89365 11.0383 9.74769C11.0806 9.74769 11.1229 9.74769 11.1756 9.74769C11.1968 9.74769 11.2284 9.74769 11.239 9.73728C11.7247 9.2264 12.3794 8.91362 12.8124 8.3506C12.9708 8.14208 13.1397 7.9544 13.3087 7.7563C13.3509 7.70417 13.4143 7.65204 13.4882 7.67289C13.5726 7.69374 13.5621 7.76673 13.5833 7.83971C13.6677 8.11079 13.6465 8.3923 13.6465 8.67382C13.2875 8.7885 12.918 8.90319 12.559 9.01788C12.485 9.03873 12.4217 9.05958 12.3478 9.08044C12.1577 9.30981 12.1999 9.40365 12.5484 9.56004C12.7807 9.65388 12.7807 9.74769 12.58 9.87282C12.5273 9.90415 12.4322 9.88324 12.4533 9.98754C12.5484 10.0605 12.6223 9.97713 12.7068 9.96663C13.1397 9.87282 13.2242 9.93539 13.2348 10.3733C13.2348 10.6965 13.2242 11.0197 13.2348 11.3533C13.2348 11.8329 13.1714 16.0981 13.3087 16.5673Z" fill="#F9DD6F"/>
<path d="M13.2647 16.6028C13.1274 16.1336 13.2453 11.8329 13.2242 11.3533C13.2136 11.0301 13.2242 10.7069 13.2242 10.3732C13.2208 9.96569 13.1228 9.91978 12.6962 9.96661C12.6117 9.98752 12.5378 10.0605 12.4428 9.98752C12.4217 9.88321 12.5272 9.90413 12.5695 9.8728C12.7701 9.74767 12.7701 9.65386 12.5378 9.56002C12.1788 9.41405 12.1471 9.30979 12.3371 9.08041C12.411 9.43491 12.5483 9.52875 12.8757 9.45576C13.0553 9.42448 13.2242 9.38278 13.4037 9.3515C13.4882 9.34107 13.6043 9.30979 13.6571 9.38278C13.7205 9.48704 13.6043 9.52875 13.5409 9.5913C13.5093 9.62258 13.4565 9.63301 13.4776 9.70601C13.6043 9.78941 13.7099 9.6851 13.8155 9.65386C14.0584 9.57045 14.1851 9.62258 14.1851 9.90412C14.1851 10.6443 15.2334 14.2655 15.1807 15.0057C14.8859 15.3784 13.5814 16.3839 13.2647 16.6028Z" fill="#F6D867"/>
<path d="M12.6118 7.46437C13.1608 6.91179 13.6571 6.32792 14.1112 5.70234C14.3647 5.55638 14.5758 5.73362 14.7764 5.81703C14.9242 5.87959 14.8081 5.98385 14.7237 6.03598C14.3752 5.99428 14.1112 6.10896 13.9316 6.43218C13.8895 6.51559 13.7944 6.57815 13.7204 6.65113C13.1291 7.29755 12.5272 7.93356 11.9676 8.60084C11.767 8.85107 11.4502 9.01789 11.3552 9.34109C11.3129 9.35153 11.2495 9.35153 11.2284 9.3828C10.9855 9.67478 10.6265 9.72684 10.2887 9.79982C10.1725 9.82074 10.0352 9.8833 9.99292 9.6956C10.2253 9.62261 10.447 9.54962 10.6793 9.48706C10.8377 9.49749 10.9539 9.43494 11.0595 9.30982C11.2495 9.08044 11.4713 8.86149 11.6508 8.62169C11.957 8.22549 12.3477 7.90227 12.6118 7.46437Z" fill="#E9C02A"/>
<path d="M12.5379 9.01786C12.8969 8.90318 13.2665 8.78848 13.6255 8.6738C14.1535 8.65295 14.6265 8.87161 15.1007 9.16805C15.1957 9.19932 15.192 9.31401 15.0864 9.33487C14.8857 9.37657 14.664 9.54339 14.474 9.38699C14.0938 9.05335 13.6466 9.10127 13.2242 9.21596C13.0764 9.25767 12.9391 9.27852 12.7913 9.27852C12.6118 9.28894 12.5167 9.20553 12.5379 9.01786Z" fill="#E9C02A"/>
<path d="M11.3657 9.35154C11.4607 9.0179 11.767 8.85108 11.9782 8.61127C12.5379 7.93357 13.1397 7.30799 13.7311 6.66156C13.7944 6.58858 13.8895 6.52602 13.9423 6.44261C14.1112 6.12982 14.3858 6.00471 14.7342 6.04641C14.4069 6.63028 13.7627 6.89094 13.3404 7.38097C12.8123 7.99612 12.2421 8.56956 11.6825 9.15343C11.5875 9.24727 11.5135 9.35154 11.3657 9.35154Z" fill="#EDC83D"/>
<path d="M10.0035 9.69554C10.0458 9.88324 10.1936 9.83109 10.2991 9.79985C10.6371 9.72687 10.9961 9.68513 11.239 9.38279C11.2601 9.35152 11.3235 9.35152 11.3657 9.34109C11.3763 9.51834 11.1545 9.57046 11.1545 9.7477C11.1123 9.7477 11.07 9.7477 11.0173 9.7477C10.88 9.78943 10.7215 9.77902 10.6054 9.88324C10.5632 9.88324 10.521 9.88324 10.4682 9.88324C10.4153 9.88324 10.3625 9.89365 10.3309 9.94581C10.2675 9.94581 10.1936 9.94581 10.1302 9.94581C9.97186 9.87283 9.66558 10.1439 9.65503 9.7477C9.78176 9.75811 9.87677 9.6643 10.0035 9.69554Z" fill="#EDC83D"/>
<path d="M10.0036 9.69563C9.87685 9.6643 9.78176 9.75811 9.66566 9.75811C9.62339 9.77902 9.57057 9.79985 9.52838 9.82068C9.47556 9.82068 9.42274 9.83109 9.3911 9.88324C9.22218 9.91457 9.23273 10.0292 9.29609 10.1335C9.40165 10.3107 9.59175 10.3629 9.77121 10.3316C9.92967 10.3003 10.088 10.2899 10.2464 10.3003C10.5421 10.3107 10.6372 10.4358 10.4787 10.6861C10.0775 11.3117 10.2464 11.9685 10.3309 12.615C10.4365 13.3448 10.426 14.0642 10.4048 14.794C10.4048 14.94 10.426 15.2111 10.0986 15.1693C9.75012 15.1173 9.49665 14.9192 9.54947 14.6897C9.63393 14.2727 9.57057 13.8661 9.59175 13.4491C9.60229 13.2926 9.54947 13.1571 9.44392 13.0529C9.38055 12.9903 9.31719 12.8547 9.201 12.9277C9.06372 13.0007 9.12709 13.1154 9.17991 13.2196C9.05318 13.6993 9.14818 14.1986 9.04263 14.6782C8.98981 14.9493 9.106 15.0859 9.38055 15.1173C9.52838 15.2528 9.68675 15.3362 9.8663 15.4092C10.2464 15.5551 10.616 15.7323 10.5526 16.2433C10.5526 16.2745 10.6054 16.3163 10.6266 16.3475C10.5738 16.5456 10.521 16.7437 10.4681 16.9523C10.0352 16.9835 9.6973 17.2546 9.30664 17.4215C8.83144 17.5778 8.3457 17.7342 7.87052 17.8907C7.77548 17.8907 7.69101 17.8907 7.59597 17.9011C7.52205 17.7759 7.53261 17.6404 7.52205 17.5049C7.50094 16.9731 7.52205 16.431 7.46925 15.8888C7.41646 15.3258 7.32142 14.7106 7.81772 14.2414C8.00779 14.0642 8.17675 13.8661 8.33514 13.6576C8.49353 13.4386 8.76807 13.2718 8.7998 13.0007C8.83144 12.74 8.95817 12.5628 9.09545 12.3855C9.43337 11.9372 9.38055 11.1448 8.97927 10.7695C8.90535 10.7069 8.82089 10.5922 8.7258 10.7069C8.65189 10.8007 8.65305 10.8902 8.84315 10.9318C8.87479 11.1404 8.94835 11.4832 8.99054 11.6813C9.01163 11.7751 8.91706 11.9041 8.84315 11.9771C8.29409 12.5609 7.86561 13.1154 7.26372 13.6576C7.17924 13.1885 7.0152 12.688 7.18415 12.2188C7.34254 11.7704 7.80716 11.5098 8.08171 11.0406C7.7966 11.2054 7.65932 11.3013 7.49037 11.4263C7.41646 11.4785 7.31086 11.5724 7.21582 11.4889C7.13135 11.4159 7.23694 11.3221 7.26863 11.2491C7.50094 10.7278 7.88108 10.3107 8.2401 9.88324C8.2929 9.82068 8.53577 9.73728 8.26122 9.63303C8.28234 9.57047 8.33514 9.52877 8.39849 9.49749C8.56745 9.48706 8.74698 9.47664 8.6097 9.22641C8.65189 9.04916 8.7998 8.96575 8.94762 8.88234C9.12709 8.90319 9.21155 8.78851 9.31719 8.68425C9.5812 8.43402 9.80294 8.1525 10.1302 7.96483C10.2148 7.92313 10.3694 7.7426 10.4644 7.83644C10.5383 7.90942 10.4855 8.0488 10.4644 8.13221C10.4538 8.18434 10.3382 8.23838 10.317 8.28009C10.1904 8.58245 9.94022 8.80246 9.77121 9.16737C10.088 9.03184 10.0775 8.76765 10.2781 8.62169C10.3521 8.56955 10.3836 8.39669 10.4787 8.42797C10.6219 8.38749 10.6219 8.53828 10.643 8.62169C10.717 8.87192 10.7592 9.23683 10.7592 9.49749C10.5585 9.56005 10.2253 9.63303 10.0036 9.69563Z" fill="#FDE686"/>
<path d="M10.1755 18.4779C10.1544 18.4466 10.5632 16.2538 10.5632 16.2224C10.5632 15.822 10.1077 15.5243 9.72746 15.3783C9.54799 15.3054 9.52832 15.2945 9.39113 15.159C9.41222 14.7837 9.43331 14.3353 9.45441 13.96C9.46504 13.7619 9.44386 13.5638 9.39113 13.3657C9.3594 13.2405 9.28549 13.2245 9.17994 13.2245C9.12712 13.1202 9.06375 12.9903 9.20103 12.9174C9.32776 12.8548 9.38049 12.9799 9.44386 13.0424C9.5495 13.1467 9.60232 13.2927 9.59169 13.4386C9.57059 13.8557 9.64763 14.2712 9.55797 14.6782C9.50515 14.9179 9.75014 15.1068 10.0986 15.159C10.4259 15.2111 10.3943 14.94 10.4048 14.7836C10.4259 14.0538 10.4364 13.3344 10.3309 12.6045C10.2359 11.9581 10.0774 11.3012 10.4787 10.6757C10.6371 10.4255 10.5421 10.3108 10.2464 10.2899C10.088 10.2795 9.92961 10.2899 9.77124 10.3212C9.59169 10.3525 9.40167 10.3004 9.29603 10.1231C9.23267 10.0189 9.22212 9.90413 9.39113 9.87289C9.36995 10.071 9.49668 10.1544 9.65505 10.1961C9.76069 10.2274 9.8557 10.217 9.87679 10.0814C9.97188 10.0814 10.0563 10.0814 10.1513 10.0814C10.257 10.1856 10.3309 10.1648 10.352 10.0189C10.3943 10.0189 10.4471 10.0189 10.4893 10.0189C10.5949 10.1231 10.616 10.0397 10.6265 9.95629C10.6899 9.95629 10.7638 9.95629 10.8272 9.95629C11.1439 10.0293 11.3658 9.79991 11.6191 9.68519C11.7353 9.63307 11.8515 9.46625 11.9571 9.66437C12.0415 9.81033 11.9465 9.91455 11.8092 9.98753C11.672 10.0605 11.5347 10.1336 11.3974 10.2065C11.4397 10.3316 11.5241 10.3108 11.598 10.2899C11.9382 10.0546 12.0627 10.3004 12.0943 10.6027C12.1154 10.7904 12.1154 10.9781 12.126 11.1762C12.1472 12.0624 12.0732 12.9486 12.1999 13.8349C11.8621 14.3145 12.0865 16.9378 11.7909 17.4487C12.0856 17.5965 11.6435 17.7444 10.1755 18.4779Z" fill="#FADE75"/>
<path d="M7.39531 19.4964C7.61706 19.3399 7.52203 19.1835 7.39531 19.0168C7.45867 18.975 7.53258 18.9229 7.59594 18.8812C8.12392 18.8082 8.62022 18.6205 9.10597 18.412C9.48608 18.2765 9.87682 18.1305 10.2569 17.995C10.2569 18.1305 10.2675 18.2765 10.2675 18.412C9.26423 18.93 7.37437 19.73 7.39531 19.4964Z" fill="#F0CC4B"/>
<path d="M10.2675 17.9948C9.88737 18.1304 9.49662 18.2764 9.11652 18.4119C9.09542 18.0574 9.36998 17.7551 9.31716 17.4005C9.69727 17.2337 10.0352 16.9626 10.4787 16.9314C10.4048 17.2755 10.3414 17.6404 10.2675 17.9948Z" fill="#FBE27D"/>
<path d="M7.13135 19.5588C7.18421 19.4755 7.2582 19.4963 7.34276 19.4963C7.30879 19.5915 7.13135 19.6097 7.13135 19.5588Z" fill="#F0CC4B"/>
<path d="M8.29286 9.62259C8.56741 9.72685 8.32454 9.81024 8.27174 9.87281C7.91272 10.3107 7.53257 10.7173 7.30026 11.2387C7.26858 11.3117 7.16298 11.395 7.24746 11.4784C7.3425 11.5618 7.46015 11.4272 7.53406 11.375C7.70302 11.25 7.82824 11.1344 8.11335 11.0302C7.82824 11.5098 7.37418 11.7599 7.21579 12.2083C7.04683 12.6775 7.19467 13.1571 7.27914 13.6263C7.22634 13.8035 7.09963 13.9287 6.98348 14.0641C6.94124 14.1163 6.85676 14.1684 6.899 14.231C6.97291 14.3561 7.13131 14.3457 7.25803 14.3978C7.33194 14.4291 7.38474 14.3874 7.40586 14.304C7.52201 13.9391 7.81768 13.6992 8.04999 13.4177C8.35622 13.0215 8.70468 12.6462 9.01088 12.25C9.31716 11.8538 9.191 11.2283 8.81089 10.9676C8.6224 10.9676 8.64197 10.7799 8.71588 10.6861C8.80034 10.5714 8.92642 10.6861 9.00033 10.7486C9.40162 11.124 9.45444 11.9164 9.11652 12.3647C8.97924 12.5524 8.85251 12.7192 8.82087 12.9799C8.78914 13.2405 8.52564 13.4177 8.36725 13.6367C8.21941 13.8452 8.03732 14.0433 7.84725 14.2206C7.34039 14.6897 7.42698 15.3049 7.49034 15.8679C7.54313 16.4101 7.52201 16.9418 7.54313 17.484C7.54313 17.6195 7.54313 17.7551 7.61705 17.8801C7.11019 18.0992 6.56109 18.0574 6.04367 18.1512C5.84304 18.1512 5.63185 18.1512 5.43122 18.1408C5.30585 16.8571 5.12309 15.3783 5.32193 14.1372C5.28656 14.0746 5.32193 14.0016 5.30081 13.9391C5.20577 13.4699 5.30585 13.2725 5.77969 13.4656C6.00143 13.5282 6.02942 13.4491 6.07166 13.2822C6.19837 13.178 6.30217 13.1956 6.37789 12.8798C6.26173 12.9736 6.23374 12.9903 6.17039 13.0424C6.05424 13.1466 5.93808 13.2055 5.81136 13.1012C5.65793 12.997 5.61361 12.8359 5.79024 12.7341C5.82193 12.6611 5.79024 12.6009 5.81136 12.5175C5.86416 12.3923 6.01163 12.3752 6.00107 12.2083C6.02219 12.1875 6.08591 12.1353 6.10703 12.1144C6.22319 12.0519 6.30767 11.9789 6.31822 11.8434C6.62445 11.5932 6.83564 11.2595 7.07851 10.9572C7.43753 10.4984 7.88104 10.0709 8.29286 9.62259Z" fill="#FADE75"/>
<path d="M7.05745 5.82744C7.20528 5.78573 7.26864 5.60849 7.44816 5.61891C7.59599 5.71275 7.5432 5.85872 7.5432 5.98383C7.52208 7.1203 7.57487 8.24633 7.61711 9.38279C7.61711 9.47663 7.60655 9.56004 7.69103 9.62259C7.02577 10.4254 6.29716 11.1761 5.55799 11.9268C5.46594 11.6705 5.45537 11.573 5.46594 11.375C5.51873 10.1551 5.33624 8.90169 5.33624 7.68182C5.33624 7.58799 5.44184 7.50606 5.33624 7.44351C5.6847 6.94305 6.20213 6.60941 6.63506 6.19236C6.75122 6.06724 6.90961 5.95255 7.05745 5.82744Z" fill="#FBE179"/>
<path d="M5.54568 11.9373C6.28485 11.197 7.02573 10.4463 7.69099 9.63311C8.53575 8.76773 9.34883 7.8815 10.1408 6.98484C10.6688 6.4114 11.239 5.85881 11.7142 5.23323C11.9888 4.92044 12.295 4.71192 12.7384 4.88917C12.8652 4.9413 13.0024 4.983 13.1292 5.04556C13.2031 5.07684 13.3404 5.05599 13.3298 5.17067C13.3086 5.28537 13.1925 5.28537 13.0869 5.29579C12.4533 5.00385 12.0732 5.07684 11.6508 5.70242C11.6086 5.78583 11.5558 5.86924 11.5136 5.96307C11.3657 5.96307 11.2918 6.07776 11.2074 6.16117C10.7743 6.60949 10.3309 7.03697 9.91904 7.50616C9.61284 7.86065 9.27491 8.16301 8.96872 8.50708C7.95497 9.63311 6.91225 10.8191 5.90909 11.9659C5.58175 12.3413 5.23061 12.6543 5.00885 13.0857C4.64593 13.0857 4.70314 12.8977 4.87158 12.6898C5.08278 12.4291 5.31818 12.2614 5.54568 11.9373Z" fill="#E9C02A"/>
<path d="M5.00885 13.0738C5.23061 12.6255 5.6213 12.3023 5.93809 11.9269C6.94125 10.78 7.93851 9.63515 8.95224 8.50911C9.25844 8.16504 9.62337 7.8711 9.91902 7.52704C10.3203 7.05785 10.7743 6.63037 11.2074 6.18205C11.2918 6.09864 11.3657 5.98395 11.5135 5.98395C11.6508 6.12992 11.4819 6.18205 11.4185 6.24461C11.0383 6.63037 10.6582 7.00572 10.278 7.38107C10.1936 7.46448 10.0775 7.53746 10.0775 7.67301C9.7501 7.98579 9.41218 8.309 9.08481 8.62179C9.00035 8.69478 8.96871 8.78861 8.97925 8.89287C8.83143 8.97628 8.6836 9.04927 8.64133 9.23694C8.46183 9.24736 8.41959 9.36206 8.43016 9.50802C8.3668 9.52888 8.314 9.581 8.29288 9.64356C7.88106 10.0919 7.43756 10.5089 7.0574 10.9885C6.81454 11.2909 6.6139 11.6245 6.29712 11.8748C6.11761 11.8852 6.0952 11.9999 6.0952 12.1459C6.07408 12.1667 6.04369 12.1875 6.02257 12.2084C5.67411 12.3648 5.4418 12.6463 5.35732 12.98C5.2834 13.3136 5.1778 13.2093 5.00885 13.0738Z" fill="#F0CC4B"/>
<path d="M5.82197 12.5273C5.80085 12.6003 5.82047 12.688 5.78206 12.761C5.72926 12.8757 5.65302 12.9799 5.79029 13.0842C5.92756 13.178 6.04371 13.1572 6.14931 13.0529C6.21267 12.9903 6.28659 12.9383 6.39218 12.8548C6.37107 13.1155 6.21267 13.1884 6.08595 13.2927C5.85364 13.3032 5.58966 13.251 5.50518 13.0425C5.40682 12.8131 5.69525 12.6732 5.82197 12.5273Z" fill="#F9DD6F"/>
<path d="M6.03311 18.1408C6.56109 18.047 7.11018 18.0887 7.60648 17.8698C7.70152 17.8698 7.78599 17.8698 7.88103 17.8593C7.78599 18.1929 7.70152 18.537 7.60648 18.8707C7.54312 18.9124 7.43261 19.0336 7.36926 19.0754C6.93631 19.1379 6.46605 19.1607 6.03311 19.2232C5.72688 19.2753 5.73744 19.1834 5.81135 18.8915C5.87471 18.6517 5.95919 18.4015 6.03311 18.1408Z" fill="#F3D259"/>
<path d="M8.97925 8.88236C8.96871 8.77809 9.00034 8.68425 9.08489 8.61127C9.41218 8.29849 9.7501 7.97527 10.0775 7.66248C10.2359 7.66248 10.3098 7.52695 10.4048 7.44354C10.9117 6.97435 11.3552 6.44261 11.9148 6.02556C12.0098 5.95258 12.1155 5.85874 12.2105 5.94215C12.3055 6.02556 12.2105 6.1611 12.1577 6.24451C12.0309 6.45304 11.8831 6.65113 11.6931 6.92222C11.9254 6.88051 11.9993 6.74497 12.0838 6.63028C12.1577 6.53645 12.221 6.39048 12.3689 6.42176C12.5273 6.46346 12.4745 6.61986 12.4745 6.74497C12.485 6.91179 12.4745 7.07861 12.4745 7.25586C12.4745 7.36013 12.4745 7.46439 12.6223 7.47481C12.3689 7.91271 11.9782 8.23593 11.6719 8.63213C11.4925 8.87193 11.2707 9.08045 11.0806 9.32026C10.975 9.44537 10.8694 9.50793 10.7005 9.4975C10.7005 9.23685 10.7111 8.98662 10.6371 8.72596C10.616 8.64255 10.6688 8.52786 10.542 8.49658C10.4365 8.47573 10.3837 8.56957 10.3203 8.6217C10.1197 8.76766 10.0222 9.16738 9.72901 9.17429C9.90848 8.80937 10.1936 8.60084 10.3098 8.29849C10.3309 8.24635 10.3837 8.20465 10.4048 8.16294C10.426 8.07953 10.521 7.9857 10.447 7.91271C10.352 7.81888 10.2569 7.92314 10.1725 7.96485C9.85574 8.14209 9.62337 8.43402 9.35945 8.68425C9.24326 8.77809 9.14826 8.90321 8.97925 8.88236Z" fill="#FADE75"/>
<path d="M12.7384 4.89959C12.2949 4.72235 11.9887 4.93087 11.7142 5.24366C11.6296 5.0247 11.6508 4.80576 11.6403 4.57637C11.6296 4.15932 11.7036 3.74227 11.5769 3.34608C11.9359 3.20011 12.2949 3.09585 12.675 3.00201C12.8123 3.62759 12.7068 4.26358 12.7384 4.89959Z" fill="#F9DD6F"/>
<path d="M11.6403 5.71279C12.0627 5.08722 12.4534 5.00381 13.0764 5.30617C13.0764 5.43128 13.0236 5.57725 12.8864 5.46256C12.4851 5.13935 12.2316 5.42086 11.9465 5.6398C11.8621 5.71279 11.7881 5.84833 11.6403 5.71279Z" fill="#F0CC4B"/>
<path d="M11.5769 3.34604C11.7037 3.75267 11.6298 4.16972 11.6403 4.57633C11.6509 4.79529 11.6298 5.02467 11.7142 5.24361C11.2285 5.86919 10.6688 6.41135 10.1409 6.99522C10.0563 6.60946 10.0881 6.21326 10.067 5.82748C10.0458 5.22276 10.1302 4.61804 10.0036 4.02375C10.3098 3.79437 10.6794 3.69011 11.0278 3.55456C11.2074 3.47115 11.3868 3.4086 11.5769 3.34604Z" fill="#FBE179"/>
<path d="M10.0036 4.01324C10.1303 4.60754 10.0563 5.22269 10.0669 5.81698C10.0775 6.20275 10.0457 6.59895 10.1408 6.98472C9.33826 7.88138 8.52519 8.76761 7.69099 9.63299C7.60652 9.57043 7.61707 9.47659 7.61707 9.39318C7.5854 8.26715 7.52204 7.13069 7.54316 5.99423C7.54316 5.86911 7.59595 5.72315 7.44812 5.62931C7.65931 5.31652 8.00778 5.19141 8.29288 4.97246C8.56743 4.76393 8.88424 4.59711 9.17989 4.41986C9.45444 4.29475 9.69727 4.08622 10.0036 4.01324Z" fill="#FDE686"/>
<path d="M10.8272 9.96649C10.7638 9.96649 10.6899 9.96649 10.6265 9.96649C10.6265 9.94568 10.6265 9.92488 10.6265 9.89358C10.7427 9.78947 10.9011 9.79987 11.0384 9.75818C11.0384 9.90399 10.8694 9.87278 10.8272 9.96649Z" fill="#F3D259"/>
<path d="M10.1409 10.1022C10.0458 10.1022 9.96133 10.1022 9.86632 10.1022C9.68677 10.0918 9.46503 10.1336 9.5284 9.83115C9.57058 9.81032 9.6234 9.7895 9.66567 9.76859C9.68677 10.1648 9.98242 9.89372 10.1409 9.9667C10.1409 10.0084 10.1409 10.0501 10.1409 10.1022Z" fill="#F3D259"/>
<path d="M10.1409 10.1021C10.1409 10.0605 10.1409 10.0084 10.1409 9.96671C10.2043 9.96671 10.2783 9.96671 10.3416 9.96671C10.3416 9.9876 10.3416 10.0084 10.3416 10.0397C10.3205 10.175 10.2465 10.2063 10.1409 10.1021Z" fill="#F9DD6F"/>
<path d="M10.6163 9.89362C10.6163 9.91451 10.6163 9.93531 10.6163 9.96661C10.6057 10.0499 10.5846 10.1332 10.4787 10.029C10.4787 9.98741 10.4787 9.93531 10.4787 9.89362C10.5316 9.89362 10.5739 9.89362 10.6163 9.89362Z" fill="#F9DD6F"/>
<path d="M10.479 9.89362C10.479 9.93531 10.479 9.98741 10.479 10.029C10.4367 10.029 10.3838 10.029 10.3414 10.029C10.3414 10.0082 10.3414 9.98741 10.3414 9.95612C10.3732 9.9041 10.4261 9.89362 10.479 9.89362Z" fill="#F3D259"/>
<path d="M7.60651 18.8811C7.70155 18.5475 7.78602 18.2034 7.88106 17.8697C8.35624 17.7134 8.84199 17.557 9.31719 17.4006C9.36992 17.7655 9.09537 18.0574 9.11655 18.4119C8.6308 18.6205 8.13448 18.8081 7.60651 18.8811Z" fill="#F9DD6F"/>
<path d="M8.83143 10.978C9.15906 11.0796 9.35111 11.9659 9.00035 12.2761C8.71588 12.7202 8.35734 13.032 8.05111 13.4282C7.82936 13.7202 7.57792 14.0835 7.39532 14.3384C7.3742 14.4218 7.31085 14.4291 7.24749 14.4082C7.12077 14.3562 6.96238 14.3666 6.88846 14.2414C6.84623 14.1789 6.9307 14.1267 6.97294 14.0747C7.08909 13.9391 7.21581 13.814 7.26861 13.6367C7.85994 13.0946 8.33512 12.4377 8.88425 11.8539C8.95816 11.7809 8.95816 11.7079 8.93698 11.614C8.88425 11.3951 8.86361 11.2273 8.83143 10.978Z" fill="#EDC83D"/>
<path d="M9.17991 13.1989C9.28546 13.1989 9.35937 13.2301 9.3911 13.3553C9.45454 13.5909 9.46534 13.7515 9.45446 13.9496C9.43328 14.3353 9.41219 14.7647 9.3911 15.14C9.10497 15.1837 8.96703 14.9078 9.05317 14.625C9.13763 14.1663 9.05317 13.6785 9.17991 13.1989Z" fill="#F0CC4B"/>
<path d="M9.51774 9.83115C9.46501 10.1335 9.6762 10.0918 9.85566 10.1022C9.83457 10.2482 9.73948 10.2482 9.63393 10.2169C9.47555 10.1648 9.34882 10.0918 9.36992 9.89371C9.41219 9.84156 9.46501 9.83115 9.51774 9.83115Z" fill="#F9DD6F"/>
<path d="M8.4301 9.4868C8.41953 9.34099 8.46181 9.22642 8.64152 9.216C8.77894 9.46597 8.5992 9.47639 8.4301 9.4868Z" fill="#FADE75"/>
<path d="M6.08635 12.1247C6.07579 11.9789 6.17257 11.8286 6.35226 11.8182C6.35226 11.9616 6.20455 12.1136 6.08635 12.1247Z" fill="#F6D867"/>
<path d="M11.0213 11.1057C10.5273 11.5019 10.7399 11.9706 10.7012 12.6949C10.7677 13.1625 10.7652 13.6408 10.7626 14.1193C10.8159 14.4597 10.7495 14.7275 10.7145 15.0063C10.7084 15.2605 10.5931 15.2452 10.435 15.1599C10.323 15.101 10.2176 15.0218 10.0726 14.9299C10.3784 14.7625 10.3386 14.482 10.3448 14.2276C10.3635 13.5651 10.3691 12.9093 10.266 12.2515C10.1962 11.794 10.5276 11.1781 10.919 10.9831C10.9717 10.9557 11.0243 10.9618 11.0442 11.0352C11.0344 11.0654 11.0278 11.0856 11.0213 11.1057Z" fill="#E9C02A"/>
<path d="M34.4661 12.5818C35.7754 13.4784 36.673 14.6358 36.937 16.2206C36.9793 16.5021 37.032 16.7732 36.9793 17.0547C36.8631 17.9617 36.5252 18.7854 35.955 19.5048C35.6192 19.9497 35.2791 20.2034 34.9413 20.5474C34.8567 20.5474 34.804 20.6395 34.7406 20.6813C34.1176 21.1192 33.4629 21.505 32.7555 21.7969C32.5759 21.6196 32.8187 21.4129 32.7555 21.2356C33.1672 21.0079 33.558 20.7786 33.9275 20.537C34.7512 19.9532 35.4291 19.2755 35.8388 18.3162C36.0922 17.9722 36.0711 17.5551 36.1662 17.1694C36.1872 16.8044 36.1872 16.4395 36.1028 16.085C36.1239 15.6784 35.9021 15.3343 35.7754 14.959C35.7015 14.7296 35.5749 14.6983 35.3637 14.813C35.0891 14.9694 34.8462 15.2179 34.5294 15.2909C34.3499 14.9052 34.1071 14.5506 33.8431 14.217C33.9486 13.9668 34.2021 13.8642 34.4133 13.7391C34.5822 13.6453 34.6562 13.4993 34.5716 13.3534C34.445 13.1135 34.4766 12.8424 34.4661 12.5818Z" fill="#FDF48B"/>
<path d="M34.466 12.5819C34.4766 12.853 34.4449 13.1136 34.5822 13.3743C34.6666 13.5307 34.5927 13.6662 34.4238 13.76C34.2126 13.8748 33.9697 13.9877 33.8536 14.238C33.7585 14.165 33.674 14.0625 33.579 13.9999C33.5685 13.8643 33.4629 13.7914 33.3678 13.708C33.1672 13.5307 32.956 13.3639 32.7554 13.197C32.8821 12.9781 33.1038 12.8947 33.2939 12.7487C33.3995 12.6758 33.5051 12.561 33.3256 12.4672C33.051 12.3213 32.7976 12.1128 32.4808 12.0398C32.2485 11.7999 31.8895 11.7895 31.6572 11.5706C31.6572 11.4142 31.6572 11.2577 31.6572 11.1118C32.6709 11.4559 33.6212 11.9146 34.466 12.5819Z" fill="#FDE686"/>
<path d="M34.9413 20.5475C35.2792 20.2035 35.6593 19.8906 35.955 19.5049C36.5252 18.775 36.8631 17.9619 36.9793 17.0548C37.0004 18.0974 36.7364 19.067 36.2929 20.0054C35.9233 20.5267 35.596 21.0897 35.0786 21.4963C34.9729 21.1939 34.9518 20.8707 34.9413 20.5475Z" fill="#D5B041"/>
<path d="M19.8939 10.4861C21.3611 10.1798 22.7585 9.92187 24.0015 9.93355C24.1177 9.93355 24.2233 9.93355 24.3395 9.93355C24.3289 10.0691 24.2444 10.1942 24.2761 10.3298C23.9065 10.361 23.0677 10.6025 22.6876 10.6234C21.5788 10.6964 20.7936 10.8824 19.8834 10.8824C19.8939 10.7468 19.8939 10.6113 19.8939 10.4861Z" fill="#F0CC4B"/>
<path d="M24.2761 10.3297C24.2445 10.1838 24.3289 10.0586 24.3395 9.93351C24.3606 9.92309 24.3817 9.90227 24.4028 9.90227C25.67 9.89185 26.9371 9.93351 28.1832 10.2046C28.1832 10.3401 28.1832 10.4757 28.1832 10.6112C27.539 10.5487 26.916 10.3819 26.2718 10.4131C25.5961 10.3297 24.9413 10.3401 24.2761 10.3297Z" fill="#F6D867"/>
<path d="M28.1725 10.6113C28.1725 10.4758 28.1725 10.3402 28.1725 10.2047C29.2391 10.2985 30.2423 10.6113 31.2454 10.945C31.3827 10.9866 31.52 11.0492 31.6572 11.1013C31.6572 11.2577 31.6572 11.4142 31.6572 11.5601C31.3616 11.5392 31.0684 11.4463 30.7938 11.3629C30.1497 11.196 29.577 10.8616 28.9223 10.7469C28.6583 10.7886 28.426 10.6321 28.1725 10.6113Z" fill="#F9DD6F"/>
<path d="M34.9412 20.5474C34.9519 20.8707 34.9729 21.1939 35.0785 21.4962C34.3288 22.2782 33.4207 22.81 32.4069 23.1853C32.4069 22.7787 32.4069 22.3721 32.4069 21.9654C32.4281 21.9446 32.4492 21.9237 32.4808 21.9029C32.502 21.9029 32.5231 21.9029 32.5442 21.9029C32.597 21.9029 32.6498 21.8925 32.6815 21.8403C32.7027 21.8195 32.7238 21.7986 32.7554 21.7777C33.4629 21.4858 34.1071 21.0896 34.7407 20.6621C34.804 20.61 34.8568 20.5474 34.9412 20.5474Z" fill="#DBBF60"/>
<path d="M28.5844 24.2696C28.067 24.4156 27.5045 24.4886 26.9765 24.4782C27.589 24.2591 27.6235 24.2591 27.6235 23.6127C27.6235 23.2061 27.6235 23.2061 27.2117 23.2582C26.9582 23.081 26.7154 23.3312 26.4619 23.2582C26.3563 23.081 26.4774 22.906 26.5196 22.7497C26.6781 22.7392 26.8632 22.8204 27.011 22.7161C27.7608 22.7057 28.4894 22.5805 29.2074 22.3824C29.3658 22.3616 29.5242 22.3122 29.6826 22.2913C29.6826 22.4268 29.6826 22.5909 29.6826 22.7161C29.746 22.862 29.313 22.6639 29.5453 22.9142C29.1547 22.9454 28.9962 23.1331 29.0596 23.5293C29.0913 23.7483 29.0701 23.9776 29.0701 24.1966C28.9117 24.2905 28.7428 24.2696 28.5844 24.2696C28.8589 23.9256 28.6689 23.5189 28.7005 23.1435C28.7111 23.081 28.6266 23.0706 28.5633 23.0706C28.067 23.0601 27.9508 23.1749 27.9614 23.6753C27.9614 23.8734 27.8981 24.1445 28.0036 24.2591C28.0987 24.3426 28.3838 24.2696 28.5844 24.2696Z" fill="#FBE179"/>
<path d="M26.462 23.248C26.7154 23.3104 26.9583 23.0707 27.2117 23.248C26.9583 23.248 26.8422 23.3522 26.8632 23.6129C26.8843 23.8214 26.8632 24.0299 26.8632 24.2488C26.8632 24.3531 26.8527 24.4574 27.0005 24.4678C26.8316 24.5825 26.631 24.5095 26.4409 24.5303C26.4409 24.228 26.4514 23.9256 26.4514 23.6233C26.4514 23.5399 26.4725 23.446 26.3564 23.3939C26.0079 23.2375 25.6911 23.4252 25.6911 23.811C25.6911 23.8422 25.6911 23.8735 25.6911 23.9152C25.6911 24.5408 25.6911 24.5408 26.3141 24.5408C25.9551 24.6659 25.5856 24.5825 25.216 24.6033C25.216 24.5825 25.216 24.5616 25.216 24.5408C25.216 24.2384 25.2054 23.936 25.2265 23.6337C25.2371 23.3 24.9942 23.4043 24.8253 23.3939C24.6563 23.3835 24.4451 23.3313 24.4662 23.6337C24.4873 23.936 24.4662 24.2384 24.4768 24.5408C24.4768 24.5616 24.4768 24.5825 24.4768 24.6033C24.3395 24.6033 24.2022 24.6033 24.065 24.6033C24.0861 24.5616 24.1072 24.5199 24.1283 24.4782C24.1283 24.0925 24.0564 23.6337 24.0564 23.248C24.8483 23.2896 25.6806 23.227 26.462 23.248Z" fill="#FDF48B"/>
<path d="M20.9921 24.2696C20.8126 24.2592 20.633 24.2279 20.4641 24.1445C20.897 24.1028 20.6964 23.7692 20.707 23.5711C20.7387 22.9663 20.6964 22.9455 20.1262 22.8621C19.9573 22.8413 19.8939 22.8829 19.8939 23.0498C19.8939 23.3729 19.8939 23.7066 19.8939 24.0298C19.7355 23.9881 19.5771 23.9569 19.4293 23.9151C19.1858 23.4251 19.2608 23.004 19.4452 22.6018C19.7936 22.6643 20.1284 22.6558 20.4768 22.7497C21.0787 22.8956 21.7629 22.9872 22.3543 23.1853C22.3543 23.2062 22.3543 23.2374 22.3543 23.2583C22.2487 23.2583 22.1431 23.2791 22.1536 23.4251C22.1642 23.7274 22.1326 24.0403 22.1747 24.3322C22.2065 24.499 22.4809 24.3426 22.5866 24.499L22.5971 24.5199C22.4916 24.4781 22.3754 24.4781 22.2592 24.499C22.0375 24.4677 21.8157 24.4365 21.6045 24.4051C21.8474 24.2279 21.7313 23.9673 21.7313 23.7483C21.7524 23.2479 21.7313 23.2374 21.2455 23.154C21.235 23.154 21.2244 23.1436 21.2138 23.1436C21.0554 23.1019 20.9815 23.1644 20.9815 23.3313C20.9921 23.6336 20.9921 23.9569 20.9921 24.2696Z" fill="#F6D867"/>
<path d="M29.5453 22.9142C29.313 22.6639 29.746 22.8516 29.6826 22.7161C30.2528 22.6639 30.7914 22.4867 31.3298 22.3199C31.3298 22.6431 31.3298 22.9663 31.3193 23.2895C31.3193 23.446 31.351 23.5502 31.541 23.5398C31.3616 23.6857 31.1398 23.7275 30.918 23.7483C30.918 23.498 30.9286 23.2583 30.9075 23.008C30.8969 22.8829 31.0026 22.6848 30.7596 22.6639C30.4745 22.6327 30.2317 22.81 30.2212 23.0289C30.2105 23.3312 30.2212 23.6336 30.2212 23.936C30.0732 24.0194 29.9149 24.0611 29.7354 24.0611C29.7354 23.7483 29.7354 23.446 29.7354 23.1331C29.7565 22.9768 29.7037 22.9038 29.5453 22.9142Z" fill="#F6D867"/>
<path d="M31.541 23.5294C31.351 23.5398 31.3124 23.4891 31.3193 23.2792C31.3298 22.956 31.3298 22.6328 31.3298 22.3095C31.3721 22.3095 31.4143 22.3095 31.4566 22.3095C31.4777 22.3095 31.4988 22.3095 31.5305 22.3095C31.5307 22.306 31.7727 22.1791 31.8255 22.1582C32.1106 22.033 32.0901 22.2991 32.0796 22.5702C32.069 22.8309 32.0796 23.0811 32.0796 23.3417C31.9212 23.4564 31.7311 23.5086 31.541 23.5294Z" fill="#DBBF60"/>
<path d="M26.3246 24.5407C25.7016 24.5407 25.6353 24.5583 25.6353 23.9327C25.6353 23.9327 25.6353 23.8265 25.6353 23.7848C25.6353 23.4094 26.0184 23.2375 26.3669 23.3939C26.483 23.446 26.4619 23.5398 26.4619 23.6232C26.4619 23.9256 26.4619 24.228 26.4514 24.5303C26.4091 24.5407 26.3669 24.5407 26.3246 24.5407Z" fill="#DBBF60"/>
<path d="M29.5453 22.9142C29.7037 22.9038 29.7565 22.9872 29.7565 23.1331C29.7459 23.446 29.7565 23.7483 29.7565 24.0611C29.5347 24.1445 29.313 24.1967 29.0701 24.1967C29.0701 23.9776 29.0912 23.7483 29.0596 23.5294C28.9962 23.1331 29.1546 22.9455 29.5453 22.9142Z" fill="#DBBF60"/>
<path d="M30.2211 23.9256C30.2211 23.6232 30.2106 23.3209 30.2211 23.0186C30.2211 22.7891 30.4746 22.6223 30.7597 22.6537C31.0025 22.6849 30.9307 22.9204 30.9412 23.0455C30.9518 23.2957 30.9075 23.4878 30.9181 23.7379C30.7069 23.8839 30.464 23.9152 30.2211 23.9256Z" fill="#DBBF60"/>
<path d="M22.3542 23.2478C22.3542 23.227 22.3542 23.1958 22.3542 23.1749C22.3964 23.1749 22.4493 23.1749 22.4915 23.1749C22.9666 23.1958 23.4418 23.2792 23.9276 23.2478C24.014 23.2423 24.0226 23.2896 24.0754 23.3104C23.9592 23.3104 23.8431 23.3208 23.7375 23.3104C23.3785 23.2478 23.3046 23.4147 23.3151 23.7379C23.3363 24.4677 23.3257 24.4677 24.1388 24.4677C24.1177 24.5095 24.0965 24.5511 24.0754 24.5929C23.5791 24.6345 23.0934 24.5303 22.5971 24.5095V24.4886C22.8294 24.499 22.9561 24.426 22.9245 24.1654C22.9033 23.9673 22.9139 23.7692 22.9245 23.5711C22.935 23.4043 22.8822 23.3208 22.7027 23.3208C22.576 23.3104 22.4598 23.2688 22.3542 23.2478Z" fill="#FBE27D"/>
<path d="M32.0796 23.3312C32.0796 23.0706 32.069 22.8204 32.0796 22.5597C32.0902 22.2886 32.0163 22.1739 31.7312 22.2886C31.6678 22.3094 31.5939 22.299 31.5305 22.299C31.5305 22.2782 31.5305 22.2574 31.5305 22.2365C31.8262 22.1426 32.1218 22.0593 32.4175 21.9654C32.4175 22.372 32.4175 22.7786 32.4175 23.1853C32.3225 23.2896 32.2063 23.3208 32.0796 23.3312Z" fill="#F3D259"/>
<path d="M24.4766 24.6032C24.4766 24.5824 24.4766 24.5615 24.4766 24.5407C24.7301 24.5407 24.973 24.5407 25.2264 24.5407C25.2264 24.5615 25.2264 24.5824 25.2264 24.6032C24.973 24.6032 24.7301 24.6032 24.4766 24.6032Z" fill="#FBE27D"/>
<path d="M22.5865 24.4886V24.5148H22.6002L22.5865 24.4886Z" fill="#717070"/>
<path fill-rule="evenodd" clip-rule="evenodd" d="M19.8939 10.8928V10.4861C18.9544 10.6895 18.0607 11.088 17.1506 11.3931C17.0541 11.4255 16.9576 11.4578 16.8738 11.4975C16.8278 11.517 16.7812 11.5347 16.735 11.5523C16.735 11.5523 16.2614 11.8065 16.2614 11.8416C16.2825 11.9094 16.3062 11.9771 16.33 12.0449C16.3537 12.1127 16.3775 12.1805 16.3986 12.2482C17.5074 11.6435 18.7006 11.2578 19.8939 10.8928Z" fill="#EDC83D"/>
<path d="M29.1968 22.3826C28.4787 22.5806 27.7501 22.7058 27.0004 22.7162C27.011 22.5598 27.1271 22.4972 27.2538 22.4243C27.4967 22.2783 27.7396 22.1324 27.9719 21.9864C28.0247 21.9551 28.0527 21.915 28.021 21.8315C27.9894 21.769 27.926 21.7898 27.8732 21.7794C27.6612 21.8558 27.4039 21.8624 27.2565 21.8624C27.1298 21.8624 27.0251 21.8709 26.9618 21.7145C26.9089 21.5894 27.0321 21.5068 27.1166 21.413C27.6128 20.8291 28.1091 20.2556 28.6054 19.6718C28.7427 19.5153 28.785 19.3486 28.5526 19.2756C28.2253 19.1609 27.9085 18.9941 27.5495 18.9941C27.4122 18.9315 27.2749 18.8585 27.1376 18.796C27.2116 18.7126 27.2961 18.723 27.3806 18.7542C27.7924 18.8898 28.2148 18.9627 28.6372 19.0357C28.88 19.0775 29.1335 19.0566 29.2179 18.8272C29.3024 18.5874 29.049 18.4936 28.8694 18.4101C28.3203 18.1704 27.8267 18.0573 27.2565 17.8696C27.0876 17.8175 26.6986 17.697 26.667 17.426C27.1316 17.5169 27.8865 17.6715 28.4356 17.8696C28.8157 18.0052 29.2039 18.16 29.5313 18.4101C29.8164 18.6187 29.643 18.3968 29.6536 18.2403C29.8965 18.1882 30.0564 18.0261 30.2042 17.8696C30.5979 17.2276 30.9504 16.9018 31.3833 16.3908C32.0592 15.5881 32.9183 14.6692 33.5941 13.8769C33.6891 13.9498 33.7586 14.1563 33.8536 14.2188C34.1176 14.5525 34.3604 14.907 34.54 15.2928C34.5716 15.5013 34.6983 15.6785 34.6772 15.8974C34.1492 16.2832 33.8113 16.8358 33.3784 17.3155C32.692 18.087 32.0373 18.8793 31.3615 19.6718C31.0236 20.0679 30.6963 20.4642 30.3689 20.8604C30.3055 20.9334 30.2528 21.0167 30.3055 21.1001C30.3689 21.2149 30.4745 21.121 30.5484 21.1001C30.7913 21.0272 31.0342 20.9438 31.2876 20.85C31.2876 21.0272 31.1715 21.0689 31.0764 21.121C30.6857 21.3608 30.295 21.5798 29.9254 21.83C29.6719 21.9864 29.3552 22.0802 29.1968 22.3826Z" fill="#F0CC4B"/>
<path d="M29.1968 22.3825C29.3552 22.0801 29.672 21.9863 29.9254 21.8195C30.3055 21.5693 30.6963 21.3398 31.0764 21.1105C31.1715 21.0583 31.2865 21.0271 31.2865 20.8498C30.8658 21.1001 30.8892 21.05 30.6464 21.123C30.4669 21.2689 30.2782 21.2376 30.2043 21.123C30.1515 21.0395 30.3055 20.9228 30.3689 20.8498C30.7068 20.4537 31.0342 20.0575 31.3615 19.6612C32.0268 18.8689 32.6814 18.0764 33.3784 17.3049C33.8008 16.8253 34.1492 16.2832 34.6773 15.887C34.7723 16.1267 34.7723 16.3874 34.8145 16.6272C34.8356 17.0755 34.7089 17.4926 34.6033 17.9096C34.3182 18.4831 33.9486 18.994 33.5368 19.4945C33.6529 19.484 33.748 19.4527 33.8325 19.4006C34.3393 19.1086 34.8356 18.8063 35.3425 18.5039C35.5008 18.4101 35.6487 18.3059 35.8388 18.3163C35.4587 19.2755 34.7405 19.9532 33.9275 20.5371C33.5579 20.7977 33.1672 21.0271 32.7554 21.2356C31.7733 21.7152 30.7491 22.0697 29.672 22.3095C29.5241 22.3408 29.3552 22.3616 29.1968 22.3825Z" fill="#EDC83D"/>
<path d="M35.8388 18.3162C35.6487 18.3058 35.4903 18.4396 35.3425 18.5039C34.8356 18.8063 34.3393 19.1086 33.8324 19.4005C33.7479 19.4527 33.6529 19.484 33.5367 19.4944C33.9486 18.9939 34.3181 18.483 34.6032 17.9096C34.899 17.847 35.1313 17.6593 35.3847 17.5134C35.6381 17.3778 35.8388 17.1381 36.1767 17.1693C36.071 17.5551 36.0922 17.9722 35.8388 18.3162Z" fill="#F0CC4B"/>
<path d="M34.8145 16.6272C34.7723 16.377 34.7428 16.1268 34.6772 15.8869C34.6984 15.668 34.5308 15.454 34.5097 15.2455C34.8264 15.1724 35.0996 14.9503 35.3741 14.8043C35.5853 14.6896 35.7121 14.721 35.786 14.9798C35.9127 15.3447 36.1345 15.6888 36.1134 16.1059C35.9127 16.0955 35.7649 16.231 35.596 16.304C35.3425 16.4187 35.1419 16.6689 34.8145 16.6272Z" fill="#FADE75"/>
<path d="M34.8145 16.6272C35.1418 16.6688 35.3425 16.4187 35.5959 16.2935C35.7649 16.2101 35.9127 16.085 36.1133 16.0954C36.1978 16.4499 36.1978 16.8148 36.1767 17.1797C35.8493 17.1485 35.6381 17.3882 35.3848 17.5238C35.1313 17.6889 34.574 18.0243 34.6033 17.8905C34.7089 17.4334 34.8356 17.0755 34.8145 16.6272Z" fill="#F3D259"/>
<path d="M29.6826 22.3095C30.7491 22.0697 31.784 21.6815 32.766 21.2314C32.8294 21.4086 32.5865 21.5901 32.766 21.7673C32.7448 21.7882 32.6942 21.8371 32.6626 21.8725C32.6097 21.8725 32.5865 21.8403 32.5548 21.8924C32.5337 21.8924 32.5126 21.8924 32.4915 21.8924C32.4704 21.9133 32.4492 21.9341 32.4176 21.955C32.1219 22.0489 31.8264 22.2122 31.5308 22.306C31.5097 22.3269 31.5625 22.2852 31.5308 22.306C31.4886 22.306 31.2783 22.4539 31.236 22.4539C30.6975 22.6312 30.2528 22.6752 29.6826 22.7378C29.6826 22.6231 29.6826 22.445 29.6826 22.3095Z" fill="#FDE686"/>
<path d="M12.5978 17.7543C12.7878 17.8481 12.897 18.009 12.9603 18.1654C13.2455 18.8327 13.6114 19.302 14.1394 19.7921C14.1605 19.8129 14.118 19.9845 14.1391 20.0157C14.4348 20.339 14.8466 20.5266 15.1001 20.8916C14.9522 20.8394 14.9628 20.9332 14.9628 21.0271C14.9628 21.2669 14.9628 21.5172 14.9628 21.7569C14.5087 21.4754 14.1707 21.0688 13.8329 20.6621C13.3893 20.1305 13.0515 19.5361 12.8297 18.8793C12.7036 18.5053 12.6571 18.1648 12.5978 17.7543Z" fill="#D5B041"/>
<path d="M14.9625 21.7569C14.9625 21.5172 14.9625 21.2669 14.9625 21.0271C14.9625 20.9332 14.952 20.8394 15.0998 20.8916C15.1949 20.9332 15.2793 20.9854 15.3743 21.0271C15.3954 21.048 15.4166 21.0688 15.4377 21.0897C15.4377 21.4233 15.4377 21.7673 15.4377 22.101C15.3215 22.028 15.216 21.9655 15.0998 21.8925C15.0576 21.8508 15.0048 21.7987 14.9625 21.7569Z" fill="#DBBF60"/>
<path d="M28.7216 17.7845C28.7639 17.576 28.9117 17.4405 29.049 17.284C29.2708 17.0338 29.2391 16.9399 28.9328 16.8461C28.6055 16.7419 28.2676 16.6376 27.9402 16.5438C27.9402 16.4395 27.9931 16.4291 28.0564 16.4291C28.2571 16.4395 28.3837 16.3873 28.3837 16.158C28.3837 16.012 28.4788 15.9912 28.5844 16.0954C28.6795 16.3873 28.9117 16.5021 29.1758 16.5855C29.3552 16.6376 29.5559 16.6584 29.5559 16.9295C29.5559 17.0651 29.7248 17.0442 29.8304 17.0859C29.8938 17.1068 29.9677 17.0964 29.9993 17.0234C30.0944 16.867 29.931 16.5055 29.7621 16.3908C30.6174 15.4003 31.52 14.3647 32.3858 13.3742C32.4809 13.2595 32.5865 13.1448 32.7555 13.1761C32.9667 13.343 33.1672 13.5097 33.3679 13.687C33.463 13.7704 33.5685 13.8434 33.5791 13.9789C32.9033 14.7713 32.2169 15.5742 31.541 16.3665C31.1081 16.8774 30.6963 17.3883 30.2528 17.8888C30.105 18.0555 29.9888 18.2641 29.7354 18.3058C29.746 18.1494 29.6931 18.0765 29.5242 18.0243C29.2602 17.9722 28.9751 17.9305 28.7216 17.7845Z" fill="#F3D259"/>
<path d="M32.4915 12.0292C32.4808 12.0292 32.4703 12.0397 32.4597 12.0397C32.0057 12.5089 31.4988 12.5714 30.9498 12.2169C30.8759 12.1648 30.7913 12.1335 30.7069 12.1022C30.4957 12.0918 30.3263 11.9917 30.1468 11.8978C30.2102 11.7623 30.3478 11.7165 30.464 11.6331C30.6013 11.5392 30.8125 11.508 30.8441 11.289C31.1187 11.3724 31.3722 11.5392 31.6678 11.5601C31.9001 11.7895 32.2591 11.7999 32.4915 12.0292Z" fill="#F3D259"/>
<path d="M16.3986 12.2378C17.4967 11.633 18.69 11.2577 19.8937 10.8823C20.9709 10.6634 22.0585 10.4653 23.1673 10.3923C23.5368 10.3715 23.9064 10.3611 24.2866 10.3297C24.9518 10.3402 25.6065 10.3297 26.2718 10.4027C26.2612 10.58 26.1239 10.6322 25.9972 10.7156C25.8388 10.8094 25.6776 10.9961 25.6353 11.215C25.2024 11.215 24.7417 11.215 24.3088 11.215C23.5696 11.1942 22.8188 11.1326 22.1007 11.2786C21.5622 11.3098 21.0553 11.4663 20.5273 11.5601C20.464 11.5809 20.4007 11.6017 20.3373 11.6226C18.6161 12.1022 16.9899 12.7695 15.7333 14.104C14.7407 15.1571 14.3606 16.3665 14.8569 17.7845C14.519 17.8992 14.255 18.139 13.9488 18.3058C13.7798 18.3996 13.6447 18.3323 13.5497 18.1654C13.1907 17.4772 13.1387 16.8249 13.2549 16.0951C13.4449 14.9065 14.126 13.9091 15.0235 13.1374C15.4143 12.7726 15.9973 12.5923 16.3986 12.2378Z" fill="#E6B40F"/>
<path d="M25.5643 11.0805C25.6172 10.8615 25.8283 10.8199 25.9762 10.726C26.1029 10.6426 26.2402 10.5904 26.2507 10.4132C26.8948 10.3819 27.342 10.4959 28.162 10.6113C28.4155 10.6322 28.6477 10.7789 28.9118 10.7477C28.9012 10.9041 28.9732 10.9859 28.7304 11.0671C28.6037 11.1609 28.4885 11.3231 28.4356 11.5108C27.7282 11.469 26.8948 11.143 26.1768 11.1535C25.9867 11.0492 25.7755 11.1118 25.5643 11.0805Z" fill="#E9C02A"/>
<path d="M28.3098 11.3827C28.3626 11.2055 28.5422 11.1534 28.6795 11.0491C28.785 10.9657 28.9117 10.9041 28.9117 10.7478C29.6147 10.7714 30.2 11.1325 30.8336 11.2993C30.8125 11.5183 30.6013 11.5495 30.4534 11.6434C30.3373 11.7164 30.2105 11.7686 30.1473 11.904C29.7354 11.7894 29.3236 11.6851 28.9117 11.5704C28.7217 11.4975 28.5092 11.5704 28.3098 11.3827Z" fill="#EDC83D"/>
<path d="M19.4451 22.6018C19.5401 23.0293 19.651 23.4982 19.4187 23.9152C18.6478 23.7484 17.9404 23.4147 17.2118 23.1332C16.7154 22.8934 16.198 22.6953 15.7651 22.3304C15.7651 21.9655 15.7651 21.5901 15.7756 21.2253C16.198 21.3295 16.557 21.5797 16.9372 21.7674C16.9396 21.7145 17.0128 21.8299 17.0745 21.8299C17.087 21.8624 17.2011 21.8925 17.2751 21.8925C17.3068 21.9446 17.349 21.955 17.4123 21.955C18.1187 22.1582 18.7376 22.4663 19.4451 22.6018Z" fill="#DBBF60"/>
<path d="M19.8939 24.0299C19.8939 23.7068 19.8939 23.3731 19.8939 23.0498C19.8939 22.8831 19.9572 22.8413 20.1261 22.8622C20.7069 22.8976 20.7394 22.9613 20.7069 23.5712C20.6964 23.7692 20.9076 24.1029 20.4641 24.1446C20.2634 24.155 20.0733 24.0925 19.8939 24.0299Z" fill="#DBBF60"/>
<path d="M20.9921 24.2696C20.9921 23.9568 20.919 23.6644 20.919 23.3412C20.919 23.1744 21.066 23.0915 21.2244 23.1331C21.235 23.1331 21.2455 23.1435 21.2561 23.1435C21.7524 23.227 21.7629 23.227 21.7418 23.7379C21.7313 23.9568 21.8475 24.2175 21.6151 24.3947C21.3934 24.353 21.1927 24.3113 20.9921 24.2696Z" fill="#DBBF60"/>
<path d="M15.7862 21.2252C15.7862 21.5901 15.7862 21.9655 15.7756 22.3304C15.6489 22.2782 15.5328 22.2053 15.4377 22.101C15.4377 21.7674 15.4377 21.4233 15.4377 21.0897C15.575 21.0897 15.6911 21.121 15.7862 21.2252Z" fill="#D5B041"/>
<path d="M32.5548 21.9028C32.5865 21.8508 32.6395 21.8403 32.6924 21.8403C32.6606 21.8924 32.6077 21.9028 32.5548 21.9028Z" fill="#F3D259"/>
<path d="M32.4175 21.9653C32.4387 21.9445 32.4598 21.9237 32.4917 21.9029C32.4598 21.9237 32.4387 21.9445 32.4175 21.9653Z" fill="#F3D259"/>
<path d="M27.1483 18.7958C27.2856 18.8584 27.4229 18.9314 27.5602 18.9939C27.5813 19.1815 27.4545 19.3067 27.349 19.4318C26.7154 20.172 26.0818 20.9123 25.4483 21.6526C25.3849 21.7256 25.2687 21.7881 25.3426 21.9028C25.3954 21.9967 25.501 21.9549 25.5961 21.9549C26.0079 21.9758 26.4091 21.9341 26.8104 21.8924C26.8843 21.8819 26.9793 21.8715 27.0005 21.9758C27.0216 22.0592 26.9371 22.0905 26.8843 22.1218C26.8063 22.1983 26.6845 22.366 26.4619 22.4885C26.3563 22.5615 26.124 22.5388 26.1557 22.6744C26.1979 22.862 26.4091 22.7369 26.5358 22.7682C26.4936 22.9246 26.3564 23.0601 26.4619 23.2374C26.4619 23.2714 24.9097 23.352 24.1283 23.3104C24.1072 23.3104 24.086 23.3104 24.0755 23.3104C24.0226 23.2895 23.9805 23.2478 23.9276 23.2478C23.4419 23.2791 22.9773 23.1957 22.4916 23.1748C22.5232 23.0393 22.5866 22.9142 22.5655 22.7786C22.9033 22.789 23.2412 22.7474 23.5792 22.8308C23.8221 22.8933 24.8569 22.3824 24.973 22.1739C25.047 22.0279 24.846 22.1581 24.751 22.1581C24.2448 22.2821 23.7956 22.117 23.2772 22.0103C23.0449 22.052 22.7725 22.0103 22.5403 22.0103C22.5296 21.8747 22.6499 21.6318 22.7555 21.517C23.4524 20.7142 24.1388 19.901 24.804 19.0773C25.0047 18.8271 25.3004 18.6499 25.3637 18.2953C25.5222 18.2745 25.67 18.3474 25.8178 18.3892C26.2613 18.5456 26.6837 18.7332 27.1483 18.7958Z" fill="#F6D867"/>
<path d="M26.5253 22.7787C26.3985 22.7474 26.1874 22.8621 26.1452 22.6849C26.1134 22.5493 26.3141 22.4972 26.4197 22.4242C26.5676 22.32 26.7259 22.2366 26.8737 22.1323C26.9266 22.101 27.011 22.0697 26.9899 21.9863C26.9688 21.8821 26.8737 21.8925 26.7998 21.9029C26.3985 21.9446 25.9867 21.9863 25.5855 21.9655C25.501 21.9551 25.3849 22.0071 25.332 21.9133C25.2687 21.7986 25.3321 21.736 25.4377 21.6631C26.0713 20.9229 26.7154 20.1826 27.3384 19.4423C27.444 19.3172 27.5707 19.1921 27.5496 19.0044C27.5513 18.9048 28.2557 19.0963 28.583 19.2005C28.8153 19.2735 28.7322 19.5258 28.6056 19.6821C28.1093 20.2555 27.613 20.8395 27.1166 21.4233C27.0321 21.5171 26.916 21.6214 26.9688 21.736C27.0321 21.8925 27.2011 21.8299 27.3384 21.8404C27.5284 21.8404 27.708 21.7465 27.9086 21.7778C27.9613 21.7882 28.0353 21.7674 28.0564 21.8299C28.0881 21.9133 28.0247 21.9551 27.972 21.9967C27.7291 22.1427 27.4968 22.2991 27.2539 22.4346C27.1378 22.5077 27.011 22.5701 27.0005 22.7266C26.8632 22.81 26.6942 22.7787 26.5253 22.7787Z" fill="#F3D259"/>
<path d="M28.5843 24.2696C28.3837 24.2696 28.0779 24.3739 27.9935 24.2696C27.8879 24.155 27.8461 23.8351 27.8461 23.6369C27.8461 23.1365 28.0775 23.0601 28.5738 23.0601C28.6372 23.0601 28.7111 23.0706 28.7111 23.1331C28.6688 23.5189 28.8589 23.9151 28.5843 24.2696Z" fill="#DBBF60"/>
<path d="M27.011 24.4678C26.8144 24.5242 26.8144 24.3328 26.8144 24.2285C26.8144 24.02 26.8533 23.8109 26.8428 23.6023C26.8217 23.3417 26.9687 23.2478 27.2222 23.2478C27.634 23.1957 27.634 23.1957 27.634 23.6023C27.6235 24.2487 27.634 24.3254 27.011 24.4678Z" fill="#DBBF60"/>
<path d="M23.9904 23.3104C24.0806 23.3104 24.1071 23.3209 24.1177 23.3209C24.1177 23.7066 24.1283 24.082 24.1283 24.4678C23.3046 24.4782 23.3257 24.4782 23.3046 23.738C23.294 23.4147 23.368 23.2479 23.727 23.3104C23.8458 23.3104 23.843 23.3104 23.9904 23.3104Z" fill="#DBBF60"/>
<path d="M25.2265 24.5408C24.973 24.5408 24.7302 24.5408 24.4767 24.5408C24.4767 24.2383 24.4873 23.936 24.4662 23.6337C24.445 23.3313 24.6563 23.3834 24.8252 23.3938C24.9941 23.4042 25.237 23.3 25.2265 23.6337C25.2159 23.936 25.2265 24.2383 25.2265 24.5408Z" fill="#DBBF60"/>
<path d="M22.5549 22.7787C22.6445 22.9433 22.5776 23.0681 22.481 23.1749C22.4387 23.1749 22.435 23.1933 22.3929 23.1933C21.8015 23.0056 21.1293 22.9976 20.5275 22.8412C20.179 22.7578 19.82 22.7057 19.4715 22.6327C18.764 22.4972 18.0776 22.2574 17.423 21.955C17.6869 21.9863 17.7608 21.8403 17.7608 21.6109C17.9826 21.6005 18.1516 21.7986 18.3733 21.7464C18.7112 21.9446 19.102 22.028 19.4715 22.1427C19.5243 22.1531 19.5876 22.1531 19.6404 22.1739C20.5697 22.4659 21.5095 22.6431 22.481 22.6953C22.5127 22.7369 22.5337 22.7578 22.5549 22.7787Z" fill="#F0CC4B"/>
<path d="M22.5866 24.4886C22.3928 24.3764 22.1854 24.4949 22.1642 24.3281C22.1114 24.0361 22.0981 23.6435 22.0981 23.3412C22.063 23.1743 22.2592 23.2583 22.3648 23.2479C22.4704 23.2687 22.5866 23.3104 22.6921 23.3104C22.8717 23.3104 22.9605 23.3902 22.95 23.557C22.9393 23.7552 22.95 23.9327 22.95 24.1549C22.9743 24.4886 22.8189 24.499 22.5866 24.4886Z" fill="#DBBF60"/>
<path d="M16.3986 12.2378C15.9868 12.5923 15.5011 12.8321 15.0892 13.1866C14.1917 13.9581 13.4631 14.834 13.273 16.0226C13.1569 16.7524 13.2308 17.5031 13.5898 18.1808C13.6742 18.3476 13.7482 18.3893 13.9277 18.2954C14.2339 18.1286 14.4979 17.8993 14.8358 17.7741C14.8992 17.868 14.9626 17.9513 15.0365 18.0452C15.1526 18.3059 15.2899 18.5561 15.4589 18.7855C15.3743 18.9419 15.2265 19.0253 15.0787 19.1087C14.7091 19.338 14.2656 19.4736 14.0861 19.9324C13.5581 19.4423 13.1358 18.8689 12.8507 18.212C12.7873 18.0557 12.7873 17.8575 12.5972 17.7637C12.5549 17.0026 12.4388 16.2519 12.6922 15.5012C13.104 14.271 13.9277 13.3743 14.9414 12.6132C15.2608 12.3735 15.7605 12.1023 16.2719 11.8207C16.3036 11.9667 16.3564 12.1022 16.3986 12.2378Z" fill="#E9C02A"/>
<path d="M27.1483 18.7958C26.6837 18.7333 26.2613 18.5456 25.8284 18.4205C25.6805 18.3788 25.5327 18.3058 25.3743 18.3266C25.3743 18.3058 25.3406 18.1863 25.3406 18.1654C25.3406 18.1444 25.4457 18.1967 25.488 18.1654C25.5301 18.1654 25.6066 18.1911 25.6488 18.1911C26.1768 18.3996 26.6864 18.4819 27.2566 18.4611C27.415 18.4611 27.4986 18.5009 27.5514 18.3132C27.6042 18.1047 27.5496 18.0765 27.3912 18.0035C27.2012 17.9096 26.99 17.847 26.8104 17.7428C26.6731 17.6698 26.2773 17.5387 26.3723 17.2781C26.4462 17.2989 26.6731 17.4196 26.747 17.4405C26.7788 17.7115 27.0532 17.7011 27.2117 17.7532C27.7819 17.9409 28.3416 18.1598 28.8907 18.3996C29.0701 18.4831 29.3342 18.5769 29.2392 18.8167C29.1546 19.0461 28.826 19.1048 28.5831 19.0526C28.1607 18.9797 27.8142 18.9314 27.4024 18.7958C27.3074 18.775 27.2117 18.702 27.1483 18.7958Z" fill="#F3D259"/>
<path d="M28.7216 17.7846C28.9751 17.9305 29.3402 17.9445 29.6147 18.0175C29.7836 18.0591 29.7565 18.1704 29.7459 18.3268C29.7353 18.4831 29.7881 18.6812 29.503 18.4727C29.1757 18.2329 28.7533 18.1704 28.3837 18.0244C27.8346 17.8263 27.2749 17.6699 26.7365 17.4405C26.7365 17.3779 26.7365 17.2865 26.7365 17.2136C26.8525 17.2553 26.993 17.2364 27.1092 17.2781C27.6582 17.4136 28.1725 17.649 28.7216 17.7846Z" fill="#E9C02A"/>
<path d="M14.0755 19.9427C14.2551 19.484 14.654 19.2821 15.0235 19.0527C15.1714 18.9589 15.3532 18.9418 15.4482 18.7958C15.5327 18.8688 15.6277 18.8928 15.7122 18.9658C15.8918 19.1951 16.103 19.4318 16.3247 19.609C16.2191 19.8801 15.9339 19.9323 15.7228 20.0678C15.4588 20.2451 15.501 20.3701 15.7122 20.5161C16.029 20.7142 16.3458 20.9019 16.6626 21.1C17.0322 21.2772 17.3912 21.4649 17.7608 21.6422C17.7608 21.8716 17.6763 22.0071 17.4229 21.9863C17.3912 21.9341 17.3384 21.9237 17.2856 21.9237C17.2328 21.8403 17.1589 21.8611 17.085 21.8611C17.0533 21.809 17.0005 21.7986 16.9477 21.7986C16.5675 21.6109 16.2085 21.3607 15.7861 21.2564C15.7017 21.1522 15.5749 21.1208 15.4482 21.1208C15.4271 21.1 15.406 21.0792 15.3849 21.0583C15.2898 21.0166 15.2054 20.9645 15.1104 20.9227C14.8569 20.5578 14.4451 20.3701 14.16 20.047C14.1178 19.9844 14.0966 19.9636 14.0755 19.9427Z" fill="#EDC83D"/>
<path d="M15.3745 21.0271C15.3956 21.0479 15.4168 21.0687 15.438 21.0895C15.4168 21.0687 15.3956 21.0479 15.3745 21.0271Z" fill="#D5B041"/>
<path d="M28.3098 11.3827C28.4788 11.56 28.7216 11.4975 28.9223 11.5704C28.9223 11.706 28.8273 11.7998 28.7534 11.8937C28.1198 12.6443 27.465 13.3846 26.8421 14.1457C26.5253 14.521 26.1663 14.8651 25.9233 15.2926C25.9023 15.2926 25.8706 15.2926 25.8494 15.2926C25.4904 14.7713 25.1842 14.2083 24.7618 13.7391C24.7407 13.7182 24.709 13.6869 24.6879 13.6661C24.6774 13.4784 24.5084 13.3742 24.4662 13.1969C24.519 13.1761 24.5426 13.1594 24.614 13.1343C24.973 12.7173 25.3531 12.3002 25.6911 11.8519C25.8601 11.6226 26.1557 11.487 26.1874 11.1534C26.9054 11.1326 27.5918 11.3306 28.3098 11.3827Z" fill="#FDE686"/>
<path d="M25.9128 15.2823C26.1557 14.8548 26.5253 14.5107 26.8315 14.1354C27.465 13.3743 28.1092 12.634 28.7427 11.8833C28.8166 11.7895 28.9117 11.6957 28.9117 11.5602C29.3236 11.6748 29.7353 11.7791 30.1472 11.8937C30.3162 11.9876 30.5826 12.0919 30.7938 12.1023C30.8044 12.4464 30.5311 12.6123 30.3517 12.8417C29.9609 13.3421 29.4476 13.8409 29.0252 14.3205C28.9513 14.4039 28.8884 14.5016 28.8778 14.6163C28.4237 14.7518 27.5576 15.112 27.5179 15.1051C27.011 15.3448 26.5042 15.6368 25.9128 15.2823Z" fill="#FBE179"/>
<path d="M26.1874 11.1535C26.1663 11.4767 25.86 11.6226 25.6911 11.8521C25.3531 12.3003 24.9836 12.707 24.614 13.1344C24.5823 13.1658 24.5107 13.1777 24.4685 13.1985C24.3523 13.0421 24.2444 13.0093 24.1599 13.2282C24.0965 13.3743 24.0544 13.5202 23.9698 13.6558C23.8114 13.906 23.8643 14.0937 24.0754 14.2814C24.1615 14.1726 24.4562 14.7641 24.4134 14.886C24.3605 14.886 24.3183 14.886 24.2655 14.886C24.0754 14.8235 23.8959 14.7401 23.7059 14.6879C23.1145 14.5107 22.5337 14.3334 21.9424 14.1562C21.9319 13.9685 22.048 13.833 22.1536 13.7079C22.6816 13.0823 23.2412 12.4776 23.7586 11.8311C23.9487 11.6018 24.2338 11.4245 24.2761 11.1013C24.709 11.1013 25.1419 11.0909 25.5749 11.0909C25.7755 11.1118 25.9867 11.0492 26.1874 11.1535Z" fill="#FBE27D"/>
<path d="M27.0744 17.3674C26.9582 17.3258 26.8527 17.284 26.7365 17.2424C26.6626 17.2214 26.6668 17.2215 26.5929 17.2006C26.4135 17.1901 26.2613 17.2214 26.2507 17.4196C26.2402 17.6177 26.4197 17.8054 26.2613 17.993C26.1029 18.1807 25.8495 18.066 25.6594 18.1599C25.6489 18.1599 25.6489 18.1807 25.6383 18.1807C25.5961 18.1807 25.5432 18.1807 25.501 18.1807C25.4904 18.066 25.406 18.0555 25.311 18.0451C25.068 18.0243 24.8358 17.9409 24.614 17.847C24.6985 17.7428 24.8252 17.795 24.9308 17.774C25.0575 17.7636 25.1842 17.7428 25.2265 17.5968C25.2581 17.4509 25.142 17.3987 25.0258 17.3258C24.878 17.2319 24.6668 17.2424 24.614 17.0233C24.8041 17.0859 25.0048 17.1381 25.1948 17.2006C25.3849 17.2632 25.5961 17.357 25.765 17.1798C25.9234 17.0129 25.8495 16.8044 25.8072 16.6063C25.7967 16.5646 25.7862 16.5229 25.7756 16.4812C25.8917 16.4812 25.9551 16.5646 26.029 16.6272C26.3352 16.9087 26.388 16.5125 26.5464 16.4187C26.747 16.304 26.5275 16.1242 26.5042 16.0746C26.4092 15.9703 26.2085 15.9912 26.1874 15.8035C26.6837 16.0433 27.1483 15.9286 27.6235 15.741C27.7608 15.6888 28.0036 15.5428 28.067 15.7514C28.1303 15.9807 27.9086 16.158 27.6869 16.1892C27.2117 16.2414 26.916 16.5646 26.4936 16.8148C26.7048 16.8148 26.6943 16.8044 27.0428 16.6168C27.1906 16.5333 27.3912 16.3561 27.5179 16.4812C27.6657 16.6272 27.4673 16.8364 27.4039 16.9823C27.33 17.1595 27.0428 17.1485 27.0744 17.3674Z" fill="#F9DD6F"/>
<path d="M25.9482 15.2823C26.4769 15.6305 26.855 15.2823 27.5533 15.0946C27.9757 14.886 28.4297 14.7401 28.8838 14.5941C29.1898 14.4377 29.4642 14.4179 29.7391 14.3648C29.9819 14.2918 30.0031 14.4065 29.9714 14.5837C29.9503 14.7088 29.908 14.834 29.8658 15.0008C29.7636 14.9666 29.359 14.886 29.1161 14.959C28.4825 15.1467 27.8595 15.3448 27.2682 15.6472C26.8563 15.8557 26.1699 15.7306 25.8637 15.4178C25.8215 15.3761 25.8109 15.324 25.8743 15.2823C25.9059 15.2823 25.9271 15.2823 25.9482 15.2823Z" fill="#E9C02A"/>
<path d="M24.5401 14.7401C24.5506 14.542 24.4134 14.3856 24.3605 14.1979C24.3289 14.0937 24.3394 14.0311 24.445 13.979C24.5506 13.9164 24.5947 13.906 24.6581 13.979C25.0453 14.2268 25.3686 14.6947 25.5189 15.4178C25.614 15.6785 25.9618 17.1008 25.9301 17.2781C25.8351 17.2363 25.0575 15.6785 24.9413 15.6889C24.8674 15.5012 24.6879 15.4804 24.5295 15.4178C24.5189 15.2719 24.5929 15.1363 24.6351 15.0008C24.6606 14.8875 24.6952 14.7815 24.5401 14.7401Z" fill="#FBE27D"/>
<path d="M25.2264 15.814C25.2581 15.6368 25.596 15.668 25.5009 15.4074C25.7544 15.5012 25.8917 15.7827 26.1873 15.814C26.2283 15.9462 26.4415 15.9246 26.5196 16.0951C26.667 16.243 26.7712 16.3009 26.5463 16.4291C26.388 16.523 26.3352 16.9087 26.029 16.6376C25.955 16.5751 25.8917 16.4917 25.7755 16.4917C25.596 16.2727 25.4059 16.0434 25.2264 15.814Z" fill="#FBE179"/>
<path d="M24.2674 14.8659C24.3202 14.8659 24.3606 14.8756 24.4134 14.8756C24.4134 14.9173 24.4134 14.9695 24.4134 15.0112C24.3922 15.032 24.3711 15.0528 24.35 15.0842C24.2127 15.0842 24.0755 15.0842 23.9382 15.0842C23.5053 14.9278 23.0723 14.8131 22.6182 14.7609C22.4704 14.7401 22.2487 14.6358 22.1536 14.8861C21.8052 14.8339 21.4883 14.6463 21.1293 14.6775C21.0554 14.615 20.9929 14.5414 20.919 14.4684C21.0668 14.1869 21.1289 14.1101 21.3612 14.1726C22.1489 14.2318 23.1298 14.6163 23.8667 14.8756C24.0993 14.8551 24.1516 14.9258 24.2674 14.8659Z" fill="#F3D259"/>
<path d="M29.8093 16.3665C29.9782 16.4813 30.0944 16.867 29.9993 17.0339C29.9571 17.1068 29.8938 17.1172 29.8304 17.0964C29.7354 17.0547 29.5664 17.0755 29.5558 16.94C29.5558 16.6689 29.3447 16.648 29.1757 16.5959C28.9117 16.5125 28.6794 16.3978 28.5844 16.1059C29.0067 16.1059 29.3869 16.3457 29.8093 16.3665Z" fill="#E9C02A"/>
<path d="M24.0738 14.2811C23.8731 14.1038 23.8009 13.8955 23.9592 13.6453C24.0437 13.5201 24.0965 13.3638 24.1493 13.2178C24.2338 12.9989 24.3526 13.0358 24.4687 13.1922C24.5005 13.3695 24.6774 13.4663 24.6879 13.654C24.3712 13.6228 24.2022 13.7704 24.1916 14.0832C24.2022 14.1875 24.1899 14.2811 24.0738 14.2811Z" fill="#EDC83D"/>
<path d="M24.3395 15.0737C24.3606 15.0528 24.3818 15.032 24.4028 15.0007C24.5824 14.9798 24.5296 14.8339 24.5401 14.7296C24.709 14.7609 24.6774 14.8755 24.6457 14.9903C24.6035 15.1258 24.5296 15.2613 24.5401 15.4073C24.2656 15.4281 24.3508 15.2194 24.3395 15.0737Z" fill="#FBE179"/>
<path d="M24.6774 13.6557C24.6985 13.6765 24.7303 13.7077 24.7515 13.7285C24.7303 13.6972 24.7091 13.6765 24.6774 13.6557Z" fill="#EDC83D"/>
<path d="M20.9181 14.4689C20.9921 14.5315 21.0554 14.5941 21.1293 14.6671C21.0132 14.9382 20.6964 15.0945 20.6542 15.4074C20.3902 15.3344 20.1262 15.2822 19.8728 15.1884C19.6827 15.1154 19.5876 15.178 19.5349 15.3448C19.4504 15.5637 19.3553 15.7827 19.2286 15.9808C19.0069 16.3248 19.0174 16.3561 19.4293 16.4604C19.4715 16.4708 19.5137 16.4812 19.556 16.4916C19.5771 16.5125 19.6088 16.5438 19.6299 16.5646C19.6194 16.6063 19.6194 16.6585 19.5876 16.6897C18.9541 17.4404 18.2994 18.1807 17.6764 18.9419C17.3913 19.2859 17.0217 19.5674 16.895 20.0157C16.7155 19.8802 16.5254 19.7446 16.3459 19.6195C16.1136 19.4423 15.9129 19.2442 15.7335 19.0148C15.9024 18.5352 16.1912 18.1074 16.4974 17.7217C17.2683 16.7937 18.0637 15.8296 18.8556 14.912C19.6792 13.9423 20.5586 12.9345 21.3612 11.9544C21.5934 11.6729 21.9741 11.642 22.1008 11.2771C22.8189 11.1311 23.5581 11.0805 24.2867 11.1013C24.2339 11.435 23.9487 11.6018 23.7693 11.8311C23.2519 12.4671 22.7028 13.0823 22.1642 13.7078C22.0586 13.833 21.9319 13.9685 21.953 14.1562C21.6363 14.1249 21.3405 14.0102 21.0343 13.9164C20.8971 13.8747 20.7809 13.8643 20.7176 13.9998C20.6436 14.1353 20.6242 14.1726 20.6242 14.3205C20.6664 14.4248 20.6555 14.4683 20.7716 14.4683C20.7928 14.4474 20.8971 14.4689 20.9181 14.4689Z" fill="#F9DD6F"/>
<path d="M15.0259 18.0557C14.9626 17.9619 14.8992 17.8785 14.8253 17.7846C14.329 16.377 14.7091 15.1676 15.7017 14.1041C16.9583 12.78 18.5845 12.1127 20.3057 11.6227C20.3691 11.6018 20.4324 11.581 20.4957 11.5602C20.5169 11.6957 20.7087 11.7127 20.6242 11.8065C20.4236 12.0255 20.2248 12.4749 20.0347 12.6938C19.6504 13.6544 18.9062 14.3358 17.9713 14.912C17.4011 15.5897 16.8045 16.6213 16.2026 17.2781C15.4657 18.4611 15.3183 18.3133 15.0259 18.0557Z" fill="#F3D259"/>
<path d="M15.0259 18.0556C15.4588 17.7429 15.7334 17.2737 16.0924 16.8879C16.6838 16.2311 17.2434 15.5429 17.8242 14.8652C18.4789 14.0937 19.1231 13.3221 19.7777 12.5506C19.9678 12.3317 20.1578 12.1127 20.3585 11.8937C20.4429 11.7999 20.4875 11.7188 20.4768 11.5729C21.0664 11.3629 21.586 11.3083 22.1246 11.2771C21.9979 11.642 21.6574 11.8937 21.425 12.1752C20.6119 13.1553 19.7883 14.1145 18.9646 15.0841C18.1832 16.0017 17.3807 16.8983 16.6099 17.8263C16.293 18.2016 15.9079 18.7569 15.7228 19.0045C15.6384 18.9315 15.5503 18.9778 15.4657 18.9048C15.2863 18.6649 15.1421 18.3059 15.0259 18.0556Z" fill="#F6D867"/>
<path d="M17.085 21.83C17.159 21.83 17.2436 21.8195 17.2858 21.8925C17.2118 21.9029 17.1378 21.9133 17.085 21.83Z" fill="#F0CC4B"/>
<path d="M17.2857 21.9029C17.3386 21.9029 17.3915 21.9133 17.4233 21.9654C17.3704 21.9654 17.3174 21.955 17.2857 21.9029Z" fill="#F0CC4B"/>
<path d="M16.9478 21.7674C17.0006 21.7674 17.0536 21.7778 17.0854 21.8298C17.0218 21.8298 16.9795 21.8194 16.9478 21.7674Z" fill="#F0CC4B"/>
<path d="M25.3637 18.2537C25.3637 18.2746 25.3637 18.2954 25.3637 18.3162C25.3004 18.6603 25.0047 18.848 24.8041 19.0982C24.1388 19.9219 23.4419 20.7247 22.7555 21.538C22.6605 21.6526 22.6182 21.7673 22.6289 21.9029C21.9636 21.7882 21.3089 21.6735 20.6436 21.5692C20.6331 21.4233 20.6859 21.3086 20.7809 21.2043C21.5623 20.2973 22.3543 19.3902 23.1252 18.4726C23.3046 18.2641 23.5475 18.0869 23.5897 17.7845C23.7481 17.7636 23.896 17.8366 24.0438 17.8783C24.4873 18.0035 24.9097 18.1911 25.3637 18.2537Z" fill="#FBE179"/>
<path d="M20.6436 21.5589C21.3089 21.6736 21.9635 21.7883 22.6288 21.8925C22.8611 21.8821 23.0828 21.9968 23.3151 21.9656C23.3046 22.1323 23.2565 22.2226 23.1298 22.306C22.9397 22.4416 22.6352 22.4995 22.5402 22.7497C21.5687 22.6871 20.5696 22.4764 19.651 22.1845C19.5982 22.1636 19.5349 22.1636 19.4821 22.1532C19.461 21.9238 19.6827 21.8925 19.8094 21.7883C19.9573 21.6736 20.1895 21.6527 20.2318 21.413C20.369 21.4754 20.5063 21.5172 20.6436 21.5589Z" fill="#FDF48B"/>
<path d="M22.4916 22.7161C22.5866 22.4659 22.8506 22.4137 23.0406 22.2782C23.1568 22.1948 23.3046 22.1426 23.3152 21.9759C23.8326 21.9237 24.3289 22.0592 24.8463 22.0488C24.9413 22.0488 25.047 22.0488 24.973 22.1948C24.8674 22.3929 23.8221 22.9038 23.5792 22.8516C23.2412 22.7682 22.9033 22.81 22.5655 22.7995C22.5338 22.7578 22.5127 22.737 22.4916 22.7161Z" fill="#FBE179"/>
<path d="M17.8239 21.7145C17.4543 21.5372 17.0144 21.3002 16.6448 21.123C16.6237 20.9561 16.7471 20.8603 16.8739 20.7768C17.0533 20.6622 17.3068 20.61 17.3491 20.3389C17.6342 20.3389 17.8031 20.6413 18.0987 20.61C18.3733 20.8603 18.7323 20.9333 19.0597 21.0792C19.0174 21.3398 18.7746 21.3815 18.6056 21.4963C18.5 21.5692 18.3733 21.6005 18.3733 21.7569C18.1516 21.809 18.0351 21.6936 17.8239 21.7145Z" fill="#F6D867"/>
<path d="M18.3838 21.7673C18.2068 21.6723 18.358 21.4786 18.5608 21.4187C18.678 21.3017 18.9145 21.3362 19.0354 21.0896C19.0572 21.0452 19.6916 21.219 20.2318 21.4233C20.1895 21.663 19.9573 21.6839 19.8094 21.7986C19.6721 21.9029 19.461 21.9237 19.4821 22.1636C19.1125 22.0488 18.5608 21.8623 18.3838 21.7673Z" fill="#FBE179"/>
<path d="M25.4879 18.1654C25.4985 18.1549 25.6488 18.1598 25.6594 18.1598C25.8494 18.066 26.1029 18.1807 26.2612 17.993C26.3509 17.8029 26.201 17.606 26.2507 17.4195C26.2612 17.2319 26.3563 17.159 26.5253 17.1694C26.5253 17.2319 26.5253 17.3049 26.5253 17.3675C26.4302 17.6177 26.6625 17.649 26.7998 17.7324C26.9898 17.8366 27.1905 17.8992 27.3806 17.993C27.5284 18.066 27.729 18.139 27.6762 18.3475C27.6234 18.5351 27.4334 18.5143 27.2749 18.5143C26.7047 18.5351 26.0159 18.3739 25.4879 18.1654Z" fill="#F6D867"/>
<path d="M25.3637 18.2537C24.8991 18.1911 24.4767 18.0035 24.0438 17.8784C23.896 17.8366 23.748 17.7637 23.5897 17.7846C23.5897 17.7637 23.5897 17.7428 23.5897 17.722C23.5897 17.7011 23.5719 17.6051 23.5719 17.5739C23.8043 17.6155 24.0141 17.7217 24.2761 17.7846C24.3289 17.868 24.4028 17.847 24.4767 17.847C24.5189 17.847 24.5717 17.847 24.614 17.847C24.8357 17.9409 25.0272 18.0141 25.3109 18.0452C25.4059 18.0556 25.4904 18.0661 25.5009 18.1807C25.4587 18.212 25.4059 18.2329 25.3637 18.2537Z" fill="#F6D867"/>
<path d="M26.5253 17.3777C26.5253 17.3152 26.5253 17.2423 26.5253 17.1798C26.5993 17.2006 26.667 17.1798 26.8144 17.278C26.8144 17.3405 26.7367 17.3777 26.7367 17.4506C26.6627 17.4194 26.5993 17.3985 26.5253 17.3777Z" fill="#F0CC4B"/>
<path d="M17.3595 20.3493C17.3173 20.6204 17.0639 20.6726 16.8844 20.7872C16.7577 20.8707 16.6131 20.9561 16.6448 21.123C16.328 20.9249 15.9194 20.74 15.6131 20.5315C15.3914 20.3855 15.4329 20.1825 15.6969 20.0052C15.9081 19.8697 16.097 19.7674 16.2027 19.4963C16.3822 19.6319 16.7154 19.8801 16.895 20.0052C17.0428 20.1095 17.2329 20.1825 17.3595 20.3493Z" fill="#F0CC4B"/>
<path d="M20.9181 14.469C20.897 14.469 20.876 14.469 20.8548 14.469C20.728 14.469 20.5591 14.4898 20.5168 14.3751C20.4536 14.2187 20.6436 14.1144 20.7175 13.9789C20.7914 13.8434 20.897 13.8642 21.0343 13.8955C21.3405 13.9894 21.6256 14.104 21.953 14.1353C22.5443 14.3125 23.1357 14.4898 23.7164 14.667C23.9065 14.7296 24.086 14.8025 24.2761 14.8651C24.1388 14.9381 24.0015 14.9277 23.8537 14.8964C23.0934 14.6879 22.3226 14.4898 21.5517 14.3021C21.2983 14.2395 21.0554 14.1875 20.9181 14.469Z" fill="#E9C02A"/>
<path d="M24.2656 17.7741C24.0332 17.7324 23.8115 17.6803 23.5792 17.6386C23.5264 17.4926 23.3786 17.4822 23.273 17.4614C22.6077 17.3154 21.9636 17.1173 21.3406 16.8462C21.235 16.794 21.1083 16.742 20.9921 16.8358C20.9083 16.8327 20.729 16.7613 20.6242 16.6866C20.4887 16.6093 20.3973 16.6591 20.3295 16.5387C20.2661 16.4657 20.1824 16.2727 20.2458 16.1581C20.288 16.0642 20.4324 16.1164 20.5274 16.0955C20.7525 16.036 20.7371 16.1124 21.2772 16.0955C21.3195 16.0955 21.3723 16.0955 21.4145 16.0955C21.4224 16.1398 21.4364 16.1148 21.5517 16.1581C21.8369 16.2414 22.1114 16.3458 22.3965 16.3979C23.1674 16.5229 23.8643 16.8983 24.6352 17.0339C24.688 17.2424 24.8992 17.2424 25.047 17.3362C25.1525 17.3988 25.2793 17.4509 25.2476 17.6073C25.2159 17.7533 25.0786 17.7637 24.9519 17.7846C24.8463 17.795 24.7196 17.7429 24.6352 17.8576C24.5929 17.8576 24.5401 17.8576 24.4979 17.8576C24.4451 17.7011 24.3817 17.6699 24.2656 17.7741Z" fill="#FBE27D"/>
<path d="M24.614 17.0339C23.8432 16.8983 23.1463 16.5229 22.3754 16.3978C22.0903 16.3457 21.8157 16.2414 21.5306 16.158C21.499 16.1059 21.4462 16.0955 21.3934 16.0955C21.3512 16.0955 21.2984 16.0955 21.2561 16.0955C20.9076 15.9495 20.538 15.8557 20.1579 15.8244C19.915 15.8035 19.82 15.9807 19.7672 16.1684C19.7144 16.377 19.8834 16.4395 20.0312 16.4917C20.2529 16.5647 20.4852 16.6376 20.707 16.7002C20.8021 16.7419 20.8865 16.794 20.9815 16.8358C20.9815 16.8566 20.9815 16.8774 20.9815 16.9087C20.5064 16.867 20.084 16.6272 19.6088 16.5751C19.5877 16.5542 19.556 16.5229 19.5349 16.5021C19.5349 15.9078 19.8006 15.3908 20.6242 15.6514C22.0287 16.079 23.4419 16.4604 24.8252 16.9504C24.9731 17.0025 25.1209 17.0547 25.2899 17.0547C25.4272 17.0547 25.5116 17.013 25.4904 16.8566C25.3849 16.4917 25.1948 16.1789 24.952 15.8974C24.952 15.8557 24.952 15.814 24.952 15.7618C24.952 15.741 24.952 15.7202 24.952 15.6888C25.0681 15.6784 25.1314 15.7826 25.2265 15.8244C25.406 16.0537 25.5961 16.2727 25.7756 16.5021C25.7862 16.5438 25.7967 16.5855 25.8073 16.6272C25.8495 16.8253 25.9128 17.0339 25.765 17.2007C25.5961 17.3779 25.3849 17.284 25.1948 17.2215C24.9942 17.1589 24.8041 17.0963 24.614 17.0339Z" fill="#F6D867"/>
<path d="M24.9519 15.6785C24.9519 15.6993 24.9519 15.7201 24.9519 15.7515C24.8463 15.6889 24.7197 15.6932 24.6036 15.6514C24.2762 15.5472 23.9487 15.4595 23.6531 15.2718C23.6847 15.1259 23.8349 15.1617 23.9276 15.0633C24.0649 15.0633 24.2022 15.0633 24.3395 15.0633C24.3606 15.2093 24.2655 15.4178 24.54 15.397C24.6985 15.4804 24.8885 15.4908 24.9519 15.6785Z" fill="#F9DD6F"/>
<path d="M20.6436 15.4073C20.6964 15.0841 21.0026 14.9381 21.1188 14.667C21.4778 14.6358 21.7945 14.8235 22.143 14.8756C22.3437 14.9572 22.722 14.8814 22.835 15.0599C22.835 15.1746 22.5971 15.2509 22.5443 15.3343C22.4175 15.522 22.3194 15.7178 22.2454 15.9472C21.7491 15.7804 21.1504 15.5637 20.6436 15.4073Z" fill="#FBE27D"/>
<path d="M22.6922 15.0737C22.5338 14.9278 22.1272 14.9066 22.1431 14.8647C22.2381 14.6145 22.4598 14.7296 22.6078 14.7401C23.0618 14.8026 23.4947 14.9173 23.9276 15.0633C23.8643 15.1571 23.6848 15.1259 23.6531 15.2718C23.3363 15.2093 23.0195 15.1467 22.6922 15.0737Z" fill="#F6D867"/>
<path d="M19.6193 16.5647C20.0945 16.6272 20.5168 16.867 20.992 16.8983C21.0554 16.94 21.1293 16.9921 21.1927 17.0339C20.1684 18.2329 19.1336 19.4214 18.1093 20.6204C17.8136 20.6413 17.6446 20.3493 17.3595 20.3493C17.2328 20.1826 17.0428 20.1096 16.8844 20.0053C17.0216 19.557 17.3912 19.2755 17.6658 18.9314C18.2888 18.1703 18.9435 17.43 19.5771 16.6794C19.6087 16.6585 19.6087 16.6064 19.6193 16.5647Z" fill="#FBE27D"/>
<path d="M20.6435 15.4074C21.1504 15.5638 21.6467 15.7201 22.1536 15.8766C22.9245 16.1059 23.7059 16.3249 24.4767 16.5542C24.8145 16.6481 25.163 16.7419 25.5009 16.8462C25.5115 16.9922 25.4778 17.1198 25.3405 17.1302C25.1716 17.1302 24.8988 17.0345 24.751 16.9824C23.3677 16.4819 22.0058 16.1268 20.6014 15.6993C19.7777 15.449 19.5454 15.9078 19.5454 16.4917C19.5031 16.4813 19.4609 16.4708 19.4187 16.4604C19.0174 16.3457 19.0068 16.3249 19.218 15.9808C19.3448 15.7827 19.4398 15.5638 19.5242 15.3448C19.5876 15.178 19.672 15.1259 19.8621 15.1884C20.1156 15.2823 20.3795 15.3344 20.6435 15.4074Z" fill="#EDC83D"/>
<path d="M18.1093 20.6204C19.1336 19.4214 20.1684 18.2329 21.1927 17.0339C21.3405 17.0234 21.4778 17.0964 21.615 17.1381C22.2698 17.3258 22.935 17.5135 23.5897 17.7115C23.5897 17.7324 23.5897 17.7532 23.5897 17.7741C23.5475 18.0765 23.3092 18.4005 23.1298 18.609C22.3589 19.5265 21.5531 20.3637 20.7716 21.2709C20.6766 21.3751 20.633 21.4233 20.6435 21.5588C20.5064 21.5171 20.3691 21.4649 20.2318 21.4233C19.8411 21.3086 19.4503 21.1939 19.0702 21.0896C18.7428 20.9437 18.3838 20.8707 18.1093 20.6204Z" fill="#FDE686"/>
<path d="M23.5897 17.7116C22.935 17.5239 22.2698 17.3363 21.6151 17.1382C21.4778 17.0964 21.3405 17.0235 21.1927 17.0339C21.1293 16.9922 21.0554 16.9401 20.9921 16.8983C20.9575 16.8835 20.9581 16.8594 20.9921 16.8254C21.1188 16.7315 21.235 16.7941 21.3405 16.8359C21.9635 17.1069 22.6077 17.305 23.273 17.4509C23.3891 17.4718 23.5263 17.4823 23.5792 17.6282C23.5897 17.67 23.5897 17.6908 23.5897 17.7116Z" fill="#F9DD6F"/>
<path d="M24.1615 17.7217C24.2777 17.6071 24.5825 17.734 24.6037 17.8694C24.5402 17.8798 24.2048 17.9648 24.1615 17.7217Z" fill="#F9DD6F"/>
<path d="M20.707 16.7002C20.4989 16.6732 20.265 16.6054 20.0311 16.4916C19.8833 16.4395 19.7038 16.3769 19.7672 16.1684C19.8199 15.9808 19.915 15.8035 20.1578 15.8243C20.538 15.8557 20.9076 15.9495 21.2561 16.0954C21.0026 16.1893 20.8777 16.0429 20.6242 16.095C20.5398 16.1159 20.3162 16.0954 20.2635 16.1893C20.2107 16.3144 20.3374 16.3561 20.3901 16.4291C20.4852 16.5334 20.6964 16.5125 20.707 16.7002Z" fill="#F9DD6F"/>
<path d="M21.3933 16.0954C21.4463 16.0954 21.4991 16.1058 21.5309 16.1579C21.425 16.262 21.4145 16.1787 21.3933 16.0954Z" fill="#F9DD6F"/>
<path d="M24.4767 16.5542C23.7059 16.3248 22.9245 16.1059 22.1536 15.8765C22.2275 15.6471 22.547 15.2972 22.5573 15.3117C22.6101 15.2282 22.7027 15.1884 22.7027 15.0737C23.0274 15.1396 23.3578 15.1674 23.6548 15.2678C23.9505 15.4555 24.3183 15.4907 24.6351 15.6054C24.7512 15.6471 24.8465 15.6831 24.9521 15.7457C24.9521 15.7874 24.9624 15.8452 24.9624 15.8974C24.8339 16.1598 24.5954 16.3239 24.4767 16.5542Z" fill="#FDE686"/>
<path d="M24.4766 16.5542C24.5717 16.2831 24.8251 16.1267 24.9624 15.887C25.2158 16.1685 25.4059 16.4812 25.5009 16.8462C25.163 16.7523 24.8145 16.6481 24.4766 16.5542Z" fill="#FBE27D"/>
<path d="M32.4915 12.0292C32.8082 12.1022 33.0511 12.3107 33.3362 12.4567C33.5157 12.5505 33.4101 12.6652 33.3045 12.7382C33.1145 12.8738 32.8821 12.9676 32.766 13.1865C32.597 13.1657 32.4915 13.2803 32.3964 13.3846C31.5411 14.3751 30.6469 15.3544 29.7916 16.3553C29.6147 16.5387 28.3925 15.9472 28.3925 16.2009C28.3925 16.4302 28.257 16.4395 28.067 16.4291C28.0142 16.4291 27.9508 16.4291 27.9508 16.5437C28.2782 16.6376 28.6161 16.7418 28.9434 16.8462C29.2497 16.94 29.2708 17.0338 29.0596 17.284C28.9223 17.4404 28.785 17.5759 28.7322 17.7845C28.1831 17.6489 27.6023 17.4912 27.0532 17.3557C27.0215 17.1367 27.275 17.0755 27.349 16.9191C27.4122 16.7732 27.6763 16.648 27.5284 16.5021C27.4017 16.377 27.201 16.5542 27.0532 16.6376C26.7048 16.8252 26.5834 16.8345 26.3722 16.8345C26.5559 16.6363 27.1589 16.2101 27.6341 16.158C27.8558 16.1371 28.0577 15.9848 28.0682 15.7734C28.0048 15.5648 27.7713 15.7096 27.6341 15.7618C27.1589 15.9495 26.6837 16.0641 26.1979 15.8244C25.9023 15.7931 25.765 15.5116 25.5115 15.4177C25.311 14.9173 25.0469 14.4481 24.6985 14.0414C24.6351 13.9685 24.5717 13.9164 24.4662 13.9789C24.3711 14.031 24.3606 14.0936 24.3817 14.1979C24.4345 14.3855 24.5717 14.5315 24.5612 14.74C24.5507 14.8443 24.6035 14.9903 24.4239 15.0111C24.3817 14.9808 24.3817 14.9277 24.3817 14.886C24.3606 14.6254 24.1494 14.4898 24.086 14.2709C24.2233 14.2454 24.1615 14.0779 24.1615 14.0247C24.097 13.8926 24.2564 13.5364 24.709 13.6557C24.7301 13.6765 24.7618 13.7079 24.7829 13.7287C25.2053 14.2083 25.5115 14.7609 25.8706 15.2822C25.8292 15.3163 25.8491 15.3836 25.8615 15.4075C26.1778 15.7067 26.8518 15.8461 27.2644 15.6471C27.8558 15.3447 28.4788 15.1466 29.1124 14.959C29.3552 14.886 29.6087 14.7609 29.8621 15.0007C29.9044 14.8339 29.9465 14.7088 29.9677 14.5836C29.9994 14.4064 29.9783 14.2917 29.7353 14.3647C29.4502 14.4585 29.1651 14.5106 28.88 14.594C28.8906 14.4794 28.9434 14.3751 29.0173 14.2917C29.4291 13.8121 29.8621 13.3429 30.2634 12.8424C30.4429 12.6131 30.7386 12.4358 30.728 12.0917C30.8125 12.1335 30.8969 12.1647 30.9709 12.2065C31.52 12.5609 32.0268 12.4984 32.4809 12.0292C32.4597 12.0397 32.4809 12.0397 32.4915 12.0292Z" fill="#F6D867"/>
<g style="mix-blend-mode:multiply" opacity="0.8">
<path d="M36.2894 20.0068C36.7434 20.1006 37.1447 20.3092 37.4615 20.6428C37.8733 21.0599 37.9366 21.5603 37.6093 22.0503C37.1869 22.6759 36.5427 23.02 35.8775 23.3119C34.7054 23.8124 33.4489 24.0522 32.1923 24.2607C29.6896 24.6778 27.1659 24.8967 24.621 24.7924C23.8291 24.7612 23.0371 24.7403 22.2557 24.5735C22.2557 24.5422 22.2557 24.5214 22.2451 24.4901C22.3613 24.4693 22.4669 24.4693 22.583 24.5109H22.5725C23.0688 24.5422 23.5545 24.636 24.0508 24.5944C24.1881 24.5944 24.3254 24.5944 24.4627 24.5944C24.716 24.5944 24.9695 24.5944 25.2123 24.5944C25.582 24.5735 25.9515 24.6569 26.3106 24.5318C26.3528 24.5318 26.395 24.5318 26.4373 24.5318C26.6274 24.5109 26.8174 24.584 26.997 24.4693C27.5354 24.4797 28.0635 24.4067 28.5703 24.2607C28.7287 24.2607 28.8977 24.2816 29.0561 24.1877C29.2883 24.1773 29.5207 24.1356 29.7424 24.0522C29.9114 24.0418 30.0697 24.0105 30.2282 23.9271C30.471 23.9062 30.7139 23.8853 30.9145 23.729C31.1363 23.7081 31.3581 23.656 31.5375 23.5204C31.7382 23.4996 31.9177 23.4475 32.0761 23.3223C32.2028 23.3015 32.3296 23.2807 32.414 23.1764C33.4277 22.7906 34.3358 22.2693 35.0856 21.4873C35.5924 21.0911 35.9198 20.5281 36.2894 20.0068Z" fill="#B4B4B3"/>
</g>
<g style="mix-blend-mode:multiply" opacity="0.8">
<path d="M14.7795 22.1233C14.3571 21.6645 13.8291 21.6333 13.2589 21.7689C12.8998 21.8522 12.4994 21.8411 12.1298 21.8829C12.1107 21.7264 12.0023 21.7063 11.8967 21.6541C11.5271 21.4665 11.1963 21.3454 10.8091 21.0535C10.4289 20.7449 9.97191 20.4729 9.73962 20.0142C10.0775 19.8786 10.7591 19.5959 10.7591 19.5959C11.6434 19.2232 11.9382 19.0754 12.7098 18.6514C12.8048 18.7036 12.8048 18.7974 12.8366 18.8807C13.0583 19.5376 13.3962 20.1319 13.8397 20.6637C14.1776 21.0703 14.5155 21.4769 14.9696 21.7584C15.0118 21.8106 15.0646 21.8522 15.1068 21.9044C15.0646 22.0816 14.8746 22.0399 14.7795 22.1233Z" fill="#383735"/>
</g>
<g style="mix-blend-mode:multiply" opacity="0.7">
<path d="M9.74258 20.0173C9.97495 20.476 10.4079 20.7262 10.788 21.0391C11.1154 21.2997 11.506 21.4561 11.8757 21.6437C11.9812 21.6959 12.1185 21.7272 12.129 21.8836C10.8303 22.0191 9.53138 22.0504 8.23258 21.9044C8.21146 21.6333 7.98972 21.4874 7.85244 21.2892C7.68348 21.0599 7.4195 20.8826 7.40894 20.5595C8.21146 20.4447 8.97172 20.2258 9.74258 20.0173Z" fill="#444342"/>
</g>
<g style="mix-blend-mode:multiply" opacity="0.7">
<path d="M7.41949 20.5594C7.43005 20.8827 7.69404 21.0599 7.86299 21.2892C8.00027 21.4873 8.23258 21.6333 8.24313 21.9044C7.01822 21.8418 5.85667 21.5499 4.74791 21.039C4.7796 20.8409 4.57896 20.6846 4.61064 20.4865C5.2231 20.5594 5.83555 20.6846 6.46913 20.622C6.78591 20.6637 7.09215 20.5282 7.41949 20.5594Z" fill="#717070"/>
</g>
<g style="mix-blend-mode:multiply" opacity="0.8">
<path d="M22.2451 24.4901C22.2451 24.5213 22.2451 24.5422 22.2557 24.5735C20.5979 24.3858 18.9717 24.0417 17.4089 23.4683C17.3138 23.4371 17.2293 23.3849 17.1343 23.3432C17.1554 23.2806 17.1765 23.2076 17.2083 23.1451C17.9368 23.4266 18.6443 23.7602 19.4152 23.9271C19.5735 23.9687 19.732 24.0001 19.8798 24.0417C20.0698 24.1043 20.2494 24.1669 20.45 24.1564C20.6189 24.2398 20.788 24.2712 20.978 24.2816C21.1786 24.3232 21.3898 24.365 21.5904 24.4067C21.8122 24.4275 22.0234 24.4588 22.2451 24.4901Z" fill="#717070"/>
</g>
<g style="mix-blend-mode:multiply" opacity="0.8">
<path d="M17.2082 23.1347C17.187 23.1972 17.1659 23.2702 17.1342 23.3328C16.2895 23.0409 15.4975 22.6551 14.7795 22.113C14.8745 22.0296 15.0646 22.0816 15.0857 21.894C15.2019 21.967 15.3074 22.0296 15.4236 22.1025C15.5186 22.2068 15.6242 22.2797 15.7615 22.3319C16.1839 22.6968 16.7118 22.8949 17.2082 23.1347Z" fill="#444342"/>
</g>
<g style="mix-blend-mode:multiply" opacity="0.7">
<path d="M3.50189 20.1632C3.87148 20.2675 4.23051 20.3718 4.6001 20.476C4.57898 20.6741 4.76905 20.8305 4.73737 21.0286C4.25163 20.8513 3.76589 20.6637 3.50189 20.1632Z" fill="#B4B4B3"/>
</g>
<g style="mix-blend-mode:multiply" opacity="0.17">
<path d="M15.6124 12.0184C15.6124 12.0397 15.6124 12.0611 15.6229 12.0824C15.4237 12.3597 15.0986 12.4769 14.8469 12.6796C13.8403 13.4582 12.9991 14.3682 12.6488 15.6339C12.4566 16.3283 12.5478 17.1804 12.5898 17.9483C12.6318 18.247 12.6745 18.3686 12.7165 18.6672C11.3624 19.3759 10.9167 19.5224 10.5162 19.7063C10.5267 19.365 10.4009 18.8975 10.3275 18.5775C10.3275 18.4389 10.317 18.2896 10.317 18.1509C10.3799 17.7883 10.4533 17.415 10.5162 17.0524C10.5686 16.8498 10.6211 16.6471 10.6735 16.4338C10.8833 16.0819 11.009 15.6873 11.2083 15.3353C11.5019 14.8127 11.8899 14.3647 12.2255 13.8848C12.582 13.5328 12.949 13.1809 13.3055 12.8289C13.6201 12.6049 13.9451 12.3703 14.2597 12.1464C14.4275 12.0611 14.5953 11.965 14.7735 11.901C15.0672 11.7624 15.3503 11.837 15.6124 12.0184Z" fill="black"/>
</g>
<path d="M53.8019 11.2379L58.9851 19.3112C59.3069 19.8146 58.9494 20.4799 58.3596 20.4799H55.4463C55.1961 20.4799 54.9637 20.3541 54.8207 20.1383L50.8529 14.0608C50.6027 13.6832 50.0665 13.6113 49.7269 13.917L47.6357 15.769C47.5106 15.8769 47.4213 16.0207 47.4034 16.1826L46.6706 19.8506C46.5991 20.2102 46.2952 20.4619 45.9378 20.4619H43.2925C42.81 20.4619 42.4704 20.0304 42.5598 19.5629L45.8841 2.84094C45.9556 2.48132 46.2595 2.22959 46.617 2.22959H49.2444C49.7269 2.22959 50.0665 2.66113 49.9771 3.12862L48.9405 8.37895C48.7975 9.08023 49.6375 9.56572 50.1737 9.09823L57.6804 2.4094C57.8234 2.28354 58.0021 2.21161 58.1809 2.21161H60.987C61.684 2.21161 62.0057 3.07468 61.4874 3.54217L53.9449 10.2489C53.6589 10.5007 53.6054 10.9142 53.8019 11.2379Z" fill="white"/>
<path d="M70.7636 11.2379L75.9468 19.3112C76.2684 19.8147 75.911 20.48 75.3212 20.48H72.39C72.1398 20.48 71.9074 20.3541 71.7644 20.1383L67.7966 14.0788C67.5464 13.7012 67.0102 13.6293 66.6707 13.935L64.5795 15.787C64.4543 15.8949 64.365 16.0388 64.3471 16.2006L63.6143 19.8686C63.5429 20.2282 63.239 20.48 62.8815 20.48H60.2541C59.7716 20.48 59.432 20.0484 59.5214 19.5809L62.8458 2.85894C62.9173 2.49933 63.2211 2.24759 63.5785 2.24759H66.2059C66.6885 2.24759 67.0281 2.67913 66.9387 3.14663L65.902 8.39694C65.7591 9.09822 66.5992 9.58371 67.1353 9.11621L74.642 2.4274C74.785 2.30154 74.9637 2.22961 75.1425 2.22961H77.9485C78.6456 2.22961 78.9673 3.09269 78.449 3.56018L70.9066 10.249C70.6206 10.5007 70.567 10.9143 70.7636 11.2379Z" fill="white"/>
<path d="M79.1638 6.47302H82.3453C82.5955 6.47302 82.7921 6.70678 82.7385 6.9585L80.129 20.1563C80.0933 20.3541 79.9324 20.4799 79.7358 20.4799H76.5544C76.3042 20.4799 76.1076 20.2462 76.1612 19.9945L78.7707 6.79668C78.8064 6.59889 78.9673 6.47302 79.1638 6.47302ZM79.8252 3.90179C79.3784 3.48824 79.1638 3.00276 79.1638 2.4094C79.1638 1.70816 79.4141 1.13278 79.8967 0.683266C80.3971 0.215766 81.0227 0 81.8269 0C82.5419 0 83.1138 0.197786 83.5428 0.593359C83.9896 0.988931 84.2041 1.47441 84.2041 2.03181C84.2041 2.787 83.9534 3.38035 83.4534 3.84785C82.953 4.31535 82.3095 4.53112 81.5053 4.53112C80.8261 4.51314 80.2541 4.31535 79.8252 3.90179Z" fill="white"/>
<path d="M98.1274 6.90456L95.4999 20.1922C95.4645 20.3541 95.3215 20.4799 95.1423 20.4799H92.0505C91.8179 20.4799 91.6568 20.2642 91.693 20.0484C91.7464 19.7247 91.407 19.491 91.139 19.6708C90.138 20.3541 88.9586 20.6777 87.6001 20.6777C86.5094 20.6777 85.5092 20.426 84.5969 19.9225C83.6858 19.419 82.9531 18.6999 82.4169 17.7469C81.8806 16.7939 81.5947 15.6791 81.5947 14.4025C81.5947 12.8562 81.9343 11.4717 82.6135 10.231C83.2926 8.99034 84.2222 8.01936 85.4016 7.31808C86.5809 6.61688 87.868 6.25726 89.2799 6.25726C91.0856 6.25726 92.4433 6.76072 93.3375 7.74966C93.5339 7.96546 93.8915 7.85756 93.963 7.56987L94.1241 6.76072C94.1594 6.58092 94.3024 6.47303 94.4807 6.47303H97.7699C98.0025 6.47303 98.1627 6.67082 98.1274 6.90456ZM90.9598 16.74C91.5861 16.3444 92.0686 15.805 92.408 15.1037C92.7474 14.4025 92.9266 13.6113 92.9266 12.7123C92.9266 11.7594 92.6406 11.0041 92.0858 10.4467C91.5319 9.88933 90.7453 9.61963 89.7451 9.61963C88.9586 9.61963 88.2436 9.81743 87.6181 10.213C86.9927 10.6086 86.5094 11.148 86.17 11.8493C85.8306 12.5505 85.6522 13.3417 85.6522 14.2406C85.6522 15.1936 85.9374 15.9488 86.4922 16.5062C87.0461 17.0636 87.8327 17.3334 88.8328 17.3334C89.6375 17.3154 90.3344 17.1356 90.9598 16.74Z" fill="white"/>
<path d="M113.408 4.02761C114.642 5.03453 115.267 6.41903 115.267 8.19914C115.267 9.72751 114.91 11.058 114.195 12.1909C113.48 13.3236 112.462 14.2046 111.139 14.816C109.816 15.4273 108.261 15.733 106.474 15.733H103.507C102.882 15.733 102.345 16.1825 102.22 16.7939L101.648 19.6887C101.523 20.3001 100.987 20.7496 100.361 20.7496H98.8243C98.0025 20.7496 97.377 19.9944 97.5373 19.1673L100.629 3.59608C100.755 2.98474 101.291 2.53522 101.916 2.53522H108.172C110.424 2.53522 112.176 3.0207 113.408 4.02761ZM109.87 11.3278C110.621 10.6804 111.013 9.76342 111.013 8.57674C111.013 7.71365 110.727 7.06634 110.138 6.61683C109.566 6.18529 108.726 5.96952 107.636 5.96952H105.42C104.794 5.96952 104.258 6.41903 104.133 7.03038L103.4 10.7164C103.239 11.5256 103.865 12.2987 104.687 12.2987H106.635C108.046 12.2987 109.119 11.9751 109.87 11.3278Z" fill="#F11C33"/>
<path d="M130.942 7.17432L128.315 20.444C128.279 20.6059 128.136 20.7317 127.957 20.7317H124.865C124.633 20.7317 124.472 20.5159 124.508 20.3002C124.562 19.9765 124.222 19.7428 123.954 19.9226C122.953 20.6059 121.755 20.9295 120.415 20.9295C119.325 20.9295 118.324 20.6778 117.413 20.1743C116.501 19.6708 115.768 18.9516 115.232 17.9987C114.695 17.0457 114.409 15.9309 114.409 14.6542C114.409 13.108 114.749 11.7234 115.429 10.4828C116.107 9.24213 117.037 8.27115 118.216 7.56987C119.397 6.86865 120.683 6.50903 122.095 6.50903C123.9 6.50903 125.259 7.01249 126.152 8.00145C126.349 8.21715 126.706 8.10935 126.778 7.82165L126.939 7.01249C126.974 6.83269 127.117 6.72481 127.296 6.72481H130.585C130.817 6.74279 130.978 6.95855 130.942 7.17432ZM123.775 17.0098C124.401 16.6142 124.883 16.0747 125.223 15.3915C125.562 14.6902 125.741 13.899 125.741 13.0001C125.741 12.0471 125.455 11.2919 124.901 10.7345C124.347 10.1771 123.561 9.90741 122.56 9.90741C121.773 9.90741 121.058 10.1052 120.433 10.5007C119.807 10.8963 119.325 11.4357 118.985 12.119C118.645 12.8203 118.467 13.6113 118.467 14.5104C118.467 15.4634 118.753 16.2186 119.307 16.776C119.861 17.3334 120.647 17.6031 121.648 17.6031C122.452 17.6031 123.15 17.4053 123.775 17.0098Z" fill="#F11C33"/>
<path d="M145.885 6.74274C146.402 6.74274 146.724 7.31815 146.438 7.74964L137.806 21.6847C136.805 23.3209 135.84 24.4357 134.892 25.065C133.945 25.6943 132.801 26 131.443 26C130.71 26 130.013 25.8921 129.316 25.6584C128.905 25.5145 128.529 25.3707 128.226 25.1729C127.904 24.9751 127.814 24.5615 128.011 24.2379L129.155 22.4398C129.352 22.1342 129.745 22.0443 130.049 22.2241C130.549 22.5477 131.139 22.6915 131.764 22.6915C132.283 22.6915 132.73 22.5657 133.105 22.296C133.48 22.0443 133.874 21.5948 134.267 20.9834L134.285 20.9654C134.356 20.8216 134.392 20.6598 134.356 20.4979L131.371 7.55185C131.282 7.13831 131.586 6.74274 132.015 6.74274H134.696C135 6.74274 135.268 6.95851 135.339 7.26415L136.948 14.6542C137.072 15.2296 137.841 15.3735 138.145 14.852L142.9 7.04841C143.024 6.85063 143.239 6.72476 143.453 6.72476H145.885V6.74274Z" fill="#F11C33"/>
</g>
<defs>
<clipPath id="clip0_18_1162">
<rect width="146.545" height="26" fill="white"/>
</clipPath>
</defs>
</svg>
