<svg width="16" height="16" viewBox="0 0 16 16" fill="none" xmlns="http://www.w3.org/2000/svg">
<path fill-rule="evenodd" clip-rule="evenodd" d="M14.8293 3.62372C15.0371 3.80556 15.0581 4.12144 14.8763 4.32926L7.87629 12.3293C7.78516 12.4334 7.65495 12.4951 7.51664 12.4997C7.37833 12.5043 7.2443 12.4514 7.14645 12.3536L4.14645 9.35356C3.95118 9.1583 3.95118 8.84172 4.14645 8.64645C4.34171 8.45119 4.65829 8.45119 4.85355 8.64645L7.47564 11.2685L14.1237 3.67075C14.3056 3.46294 14.6214 3.44188 14.8293 3.62372Z" fill="white"/>
<path fill-rule="evenodd" clip-rule="evenodd" d="M1.14645 8.64645C1.34171 8.45118 1.65829 8.45118 1.85355 8.64645L4.85355 11.6464C5.04882 11.8417 5.04882 12.1583 4.85355 12.3536C4.65829 12.5488 4.34171 12.5488 4.14645 12.3536L1.14645 9.35355C0.951184 9.15829 0.951184 8.84171 1.14645 8.64645Z" fill="white"/>
<path fill-rule="evenodd" clip-rule="evenodd" d="M11.8286 3.62312C12.0367 3.80458 12.0584 4.12043 11.8769 4.32857L7.62689 9.20357C7.44543 9.41172 7.12959 9.43336 6.92144 9.25189C6.71329 9.07043 6.69166 8.75459 6.87312 8.54644L11.1231 3.67144C11.3046 3.46329 11.6204 3.44166 11.8286 3.62312Z" fill="white"/>
</svg>
