<svg width="22" height="22" viewBox="0 0 22 22" fill="none" xmlns="http://www.w3.org/2000/svg">
<path d="M9.92157 9.35766C9.92157 9.68821 10.1373 9.90858 10.4608 9.90858H11.5392C13.049 9.79839 14.3431 10.9002 14.5588 12.3326C14.7745 13.765 13.5882 15.1974 12.1863 15.4178C12.1863 16.0789 11.7549 16.5196 11.1078 16.5196C10.4608 16.5196 10.0294 16.0789 10.0294 15.4178H8.95098C8.30392 15.4178 7.87255 14.9771 7.87255 14.3159C7.87255 13.6548 8.30392 13.2141 8.95098 13.2141H11.6471C11.9706 13.2141 12.1863 12.9937 12.1863 12.6632C12.1863 12.3326 11.8627 12.1123 11.5392 12.1123H10.4608C8.95098 12.1123 7.76471 10.9002 7.76471 9.35766C7.76471 8.03544 8.62745 6.9336 9.92157 6.60305C9.92157 5.94194 10.3529 5.5012 11 5.5012C11.6471 5.5012 12.0784 5.94194 12.0784 6.60305H13.1569C13.8039 6.60305 14.2353 7.04378 14.2353 7.70489C14.2353 8.366 13.8039 8.80673 13.1569 8.80673H10.4608C10.1373 8.80673 9.92157 9.0271 9.92157 9.35766ZM20.9216 5.06047C21.5686 5.06047 22 4.61973 22 3.95862C22 3.29752 21.5686 2.85678 20.9216 2.85678H17.902C17.7941 2.85678 17.5784 2.85678 17.4706 2.96696C17.2549 3.07715 17.0392 3.29752 16.9314 3.51789C16.8235 3.62807 16.8235 3.84844 16.8235 3.95862V7.04378C16.8235 7.70489 17.2549 8.14563 17.902 8.14563C18.3333 8.14563 18.7647 7.81507 18.8725 7.37434C20.8137 11.7817 18.8725 17.0706 14.451 18.9437C12.1863 19.9354 9.59804 19.9354 7.33333 18.8335C6.79412 18.503 6.14706 18.6131 5.82353 19.1641C5.5 19.715 5.60784 20.3761 6.14706 20.7066C6.14706 20.8168 6.2549 20.927 6.36275 20.927C11.7549 23.5714 18.2255 21.1474 20.7059 15.6382C22.3235 12.2224 22 8.25581 20.0588 5.06047H20.9216ZM4.09804 13.765C3.66667 13.765 3.23529 14.0956 3.12745 14.5363C1.18627 10.1289 3.12745 4.8401 7.54902 2.85678C9.81373 1.86512 12.5098 1.86512 14.7745 2.96696C15.3137 3.29752 15.9608 3.18733 16.2843 2.63641C16.6078 2.08549 16.5 1.42438 15.9608 1.09383C15.8529 1.09383 15.7451 1.09383 15.6373 1.09383C10.2451 -1.55059 3.77451 0.763278 1.29412 6.27249C0.647059 7.70489 0.215686 9.35766 0.215686 11.0104C0.215686 13.1039 0.754902 15.1974 1.94118 16.9604H1.07843C0.431373 16.9604 0 17.4011 0 18.0622C0 18.7233 0.431373 19.1641 1.07843 19.1641H4.09804C4.20588 19.1641 4.31373 19.1641 4.52941 19.0539C4.7451 18.9437 4.96078 18.7233 5.06863 18.503C5.06863 18.3928 5.17647 18.2826 5.17647 18.0622V14.9771C5.17647 14.3159 4.7451 13.765 4.09804 13.765Z" fill="#F69F27"/>
</svg>
