<svg width="19" height="20" viewBox="0 0 19 20" fill="none" xmlns="http://www.w3.org/2000/svg">
<path d="M8.12504 16.5C9.82606 16.4996 11.4781 15.9054 12.818 14.812L17.0308 19.208L18.3859 17.794L14.1731 13.398C15.2215 11.9997 15.7913 10.2754 15.7917 8.5C15.7917 4.089 12.3522 0.5 8.12504 0.5C3.89783 0.5 0.458374 4.089 0.458374 8.5C0.458374 12.911 3.89783 16.5 8.12504 16.5ZM8.12504 2.5C11.2962 2.5 13.875 5.191 13.875 8.5C13.875 11.809 11.2962 14.5 8.12504 14.5C4.95392 14.5 2.37504 11.809 2.37504 8.5C2.37504 5.191 4.95392 2.5 8.12504 2.5Z" fill="#A5BCE0"/>
</svg>
