<svg width="108" height="126" viewBox="0 0 108 126" fill="none" xmlns="http://www.w3.org/2000/svg">
<path d="M10.8205 56.0606L10.7223 55.9628L10.8205 56.0606Z" fill="#609EF8"/>
<path d="M75.6385 25.2712H32.4109L48.7646 11.8623C51.806 9.37922 56.2434 9.37922 59.2848 11.8623L75.6385 25.2712Z" fill="#F2C94C"/>
<path d="M107.499 116.799V117.743C107.499 122.312 103.809 125.987 99.222 125.987H8.82785C4.24083 125.987 0.55127 122.262 0.55127 117.743V117.048L44.3274 85.214L48.4657 82.2343L49.5626 81.4397C52.3547 79.4035 56.0941 79.4035 58.8862 81.4397L59.3349 81.7873L64.1214 85.2637L107.499 116.799Z" fill="#F3C025"/>
<path d="M44.2774 85.2139L0.501343 117.048V54.9694C0.501343 53.1319 1.09965 51.3937 2.19655 50.0032C2.39598 49.7052 2.64528 49.4072 2.94443 49.1589C3.14386 48.9603 3.3433 48.7616 3.54273 48.6126L5.78638 46.8744L8.97735 44.3913L9.02721 51.1454L8.92749 54.4231L9.07707 54.5225L10.7723 56.0123L10.872 56.1117L44.2774 85.2139Z" fill="#F2C94C"/>
<path d="M107.499 54.9696V116.799L64.0217 85.214L95.1336 56.7078L99.1223 53.0327L104.208 48.3645L104.457 48.5631C106.402 50.1523 107.499 52.5361 107.499 54.9696Z" fill="#F2C94C"/>
<path d="M104.208 48.4142L99.1224 53.0328V44.2425L104.208 48.4142Z" fill="#F2C94C"/>
<path d="M76.0874 46.1298L53.6509 68.4779C52.7035 69.4215 51.0582 69.4215 50.1109 68.4779L39.6405 58.0488C37.347 55.7643 40.887 52.288 43.1805 54.5228L51.9058 63.2137L72.5972 42.6038C74.8409 40.369 78.3809 43.895 76.0874 46.1298Z" fill="#609EF8"/>
<path d="M99.1222 28.4498V53.0328L95.1334 56.7078L59.235 81.7377C56.4429 79.4532 52.4044 79.2546 49.4627 81.3901L48.3658 82.1847L10.7722 56.0125L10.6725 55.9132L8.97727 54.4233L8.8277 54.324L8.92741 51.0463L8.87755 44.2922V42.0574L8.8277 28.4002C8.8277 26.513 10.3733 24.9238 12.3178 24.9238H95.632C97.5765 25.0231 99.1222 26.5627 99.1222 28.4498Z" fill="#27AE60"/>
<path d="M48.4156 82.2343L44.2773 85.214L10.822 56.0621L48.4156 82.2343Z" fill="#239E57"/>
<path d="M95.1335 56.7077L64.0216 85.214L59.2351 81.7376L95.1335 56.7077Z" fill="#239E57"/>
<path d="M76.0874 46.1298L53.6509 68.4779C52.7035 69.4215 51.0582 69.4215 50.1109 68.4779L39.6405 58.0488C37.347 55.7643 40.887 52.288 43.1805 54.5228L51.9058 63.2137L72.5972 42.6038C74.8409 40.369 78.3809 43.895 76.0874 46.1298Z" fill="white"/>
</svg>
